<?xml version="1.0" encoding="utf-8"?>
<!-- Generator: Adobe Illustrator 27.2.0, SVG Export Plug-In . SVG Version: 6.00 Build 0)  -->
<svg version="1.1" id="Camada_1" xmlns="http://www.w3.org/2000/svg" xmlns:xlink="http://www.w3.org/1999/xlink" x="0px" y="0px"
	 viewBox="0 0 3500 1000" style="enable-background:new 0 0 3500 1000;" xml:space="preserve">
<style type="text/css">
	.st0{opacity:0.49;}
	.st1{fill:none;stroke:#5749E2;stroke-miterlimit:10;}
	.st2{fill:none;stroke:#5346D8;stroke-miterlimit:10;}
	.st3{fill:none;stroke:#4F42CE;stroke-miterlimit:10;}
	.st4{fill:none;stroke:#4B3FC4;stroke-miterlimit:10;}
	.st5{fill:none;stroke:#473CBA;stroke-miterlimit:10;}
	.st6{fill:none;stroke:#4339B0;stroke-miterlimit:10;}
	.st7{fill:none;stroke:#3F35A6;stroke-miterlimit:10;}
	.st8{fill:none;stroke:#3B329C;stroke-miterlimit:10;}
	.st9{fill:none;stroke:#372F92;stroke-miterlimit:10;}
	.st10{fill:none;stroke:#332C88;stroke-miterlimit:10;}
	.st11{fill:none;stroke:#2F287D;stroke-miterlimit:10;}
	.st12{fill:none;stroke:#2B2573;stroke-miterlimit:10;}
	.st13{fill:none;stroke:#272269;stroke-miterlimit:10;}
	.st14{fill:none;stroke:#231F5F;stroke-miterlimit:10;}
	.st15{fill:none;stroke:#1F1B55;stroke-miterlimit:10;}
	.st16{fill:none;stroke:#1B184B;stroke-miterlimit:10;}
	.st17{fill:none;stroke:#171541;stroke-miterlimit:10;}
	.st18{fill:none;stroke:#131237;stroke-miterlimit:10;}
	.st19{fill:none;stroke:#0F0E2D;stroke-miterlimit:10;}
	.st20{fill:none;stroke:#0B0B23;stroke-miterlimit:10;}
</style>
<g class="st0">
	<g>
		<path class="st1" d="M1655.3,441.1c-11.7,10.1-24.3,19.5-37.8,28.1c-49.3,31.3-106.1,49.4-164.5,52.4
			c-56.5,2.9-114.2-7.1-171.4-29.9c-53.6-21.4-105.5-53.9-149.9-94.1c-27.8-25.1-53.4-53.4-78.2-80.8c-24.5-27.1-49.8-55.1-77.2-80
			c-46.2-42-118.2-90.8-198.6-85c-9.6,0.7-19.4,2.2-28.8,3.6c-20.8,3.2-42.3,6.5-63.1,1.4c-32.4-7.8-60.9-37-72.8-74.2
			c-9.4-29.6-9.7-64.3-0.8-106.2c11.4-53.6,34.5-106,66.8-151.5c32.4-45.5,74.1-84.3,120.7-112.1c10.3-6.1,21-11.9,31.4-17.5
			c18.8-10.1,38.3-20.6,55.6-33.6c31.2-23.3,50.4-52.4,54.1-81.9c2.6-20.7-2.2-41.8-6.8-62.2c-2.1-9.4-4.3-19.1-5.8-28.7
			c-6.5-42.6,1.4-86.8,23-127.8c20.5-39.1,52.6-72.7,90.2-94.6c71.3-41.6,165.2-49.2,257.7-21c76.4,23.3,151,69,228.1,139.6
			c20.8,19.1,41.6,39.7,61.7,59.6c71.4,70.7,145.2,143.8,240.7,170.4c25.9,7.2,53.3,10.8,79.7,14.3c40.2,5.3,81.8,10.8,118.8,29.2
			c42.5,21.1,76.7,59.9,96.3,109.1c19,47.6,22.7,99.9,10.5,147.4c-22.8,88.7-95.7,165.9-194.9,206.6c-11.5,4.7-23.5,9.1-35.1,13.3
			c-38.8,14.1-79,28.7-107.1,58.8c-25.2,27-37.5,63.2-49.3,98.2c-5.6,16.5-11.4,33.6-18.5,49.6
			C1713.2,379.2,1687.8,413,1655.3,441.1z"/>
	</g>
	<path class="st2" d="M936.5-655.6c20.6-39.7,52.6-73.5,90-96c73.8-44.5,170.8-50.9,258.8-25.2c77.5,22.6,152.2,81.6,231.4,161.7
		c21.4,21.6,42.8,44.3,63.9,65.8c11.9,12.2,24,24.2,36.3,35.8c65.1,61.2,137.3,104.3,223.7,118.8c27.5,4.6,56.3,6.5,84.2,8.2
		c43.4,2.6,88,6.4,127.2,27.5c47.9,25.9,82.3,70.5,99.1,124.6c16.1,51.8,13.6,107.6-4.6,158.4c-32.1,89.3-99.8,168.1-193.7,213.5
		c-10.9,5.3-22.3,10.4-33.3,15.3c-36.8,16.2-74.9,32.9-102.3,64.5c-24.3,28-36.8,64.7-49.4,100.5c-5.8,16.7-11.9,34.1-19.3,50.4
		c-19.1,41.6-47.2,72.9-82,95.4c-12.2,8.5-25.4,15.8-39.2,22.5c-50.2,24.4-107.1,36.2-165.8,32.8c-56.8-3.1-114.9-18.4-172.4-45.4
		c-28.9-13.6-57.2-30.1-84.3-48.1c-25.2-16.8-50-33.7-73.3-51.5c-30.1-23-58.3-47.9-85.6-71.6c-26.8-23.3-53.7-48.2-83.6-68.7
		c-51-35.1-127.7-74.9-210.1-69c-10.2,0.7-20.6,2.1-30.6,3.1c-21.8,2.4-44.1,4.3-65.3-3c-33.7-11.7-62.2-43.7-73.2-82.9
		c-9.2-32.7-7.7-69.8,3.7-112.9c15-56.8,44.6-110.1,79.8-155.6c34.2-44.2,75.3-83.5,120.7-112.7c10-6.4,20.4-12.5,30.5-18.5
		c18.2-10.7,36.9-21.9,53.6-35.3c29.9-24,48.5-53.3,52.3-83.1c2.6-20.7-1.7-41.9-5.8-62.3c-1.9-9.4-3.9-19.2-5.2-28.8
		C906.8-570.2,915-614.4,936.5-655.6z"/>
	<path class="st3" d="M921.8-672.4c20.6-40.4,52.7-74.3,89.8-97.4c76.4-47.5,176.4-52.7,259.8-29.4
		c78.7,21.9,153.3,94.2,234.6,183.9c21.9,24,44,48.9,66.1,72c12.6,13.3,25.5,26.2,38.8,38.2c69,63.2,148.2,94,240.7,100.5
		c29.1,2,59.4,2.7,88.6,2c46.7-1.2,94.2,2.1,135.5,25.9c53.2,30.7,87.9,81.1,101.9,140.1c13.3,56,4.8,115.2-19.7,169.4
		c-40.7,89.9-104.1,170.3-192.5,220.5c-10.3,5.9-21,11.8-31.5,17.3c-34.7,18.3-70.8,37-97.5,70.1c-23.4,28.9-36.2,66.1-49.4,102.8
		c-6.1,17-12.3,34.5-20.2,51.1c-21.6,45.6-52.3,74.4-89.4,91.3c-12.7,6.8-26.4,12-40.6,16.9c-51,17.5-108.1,22.8-167.2,13.1
		c-57-9.4-115.7-29.7-173.4-60.8c-29.7-16.1-58.7-34.6-86.6-53.9c-26.6-18.3-53.3-34.8-78.7-51.1c-32.4-20.8-63.2-42.3-93.1-62.3
		c-29.1-19.5-57.8-41.3-89.9-57.5C891.7,201.7,810.7,171,726.2,177c-10.9,0.8-21.8,1.9-32.3,2.6c-22.8,1.6-45.8,2.2-67.4-7.5
		c-35.1-15.7-63.3-50.5-73.6-91.5c-8.9-35.8-5.6-75.3,8.2-119.6c18.6-59.9,54.7-114.1,92.8-159.7c35.9-43,76.4-82.7,120.7-113.2
		c9.7-6.7,19.8-13.1,29.5-19.4c17.6-11.3,35.5-23.1,51.7-37c28.5-24.6,46.5-54.1,50.5-84.3c2.7-20.8-1.2-41.9-4.8-62.5
		c-1.7-9.5-3.4-19.2-4.5-28.9C892.1-586.7,900.6-631,921.8-672.4z"/>
	<path class="st4" d="M907.2-689.1c20.7-41,52.7-75.2,89.6-98.8c78.9-50.5,182.1-54.6,260.8-33.6c80,21.3,154.5,106.7,237.9,206
		c22.4,26.5,45.3,53.5,68.3,78.2c13.4,14.4,27.1,28.1,41.3,40.7c73.1,65.1,159,83.8,257.6,82.2c30.6-0.5,62.4-2.4,93.1-4.2
		c50-2.9,100.4-2.2,143.8,24.2c58.5,35.6,93.5,91.7,104.6,155.6c10.5,60.2-3.7,122.7-34.8,180.4c-48.8,90.6-108.3,172.6-191.3,227.4
		c-9.8,6.5-19.7,13.1-29.7,19.3c-32.6,20.3-66.7,41.1-92.8,75.8c-22.5,29.9-35.5,67.6-49.4,105.1c-6.3,17.2-12.8,35-21,51.8
		c-24.2,49.6-57.4,75.9-96.8,87.3c-13.2,5.1-27.3,8.3-42,11.3c-51.6,10.7-109,9.5-168.6-6.6c-57.3-15.5-116.5-41.1-174.4-76.3
		c-30.5-18.5-60.2-39.3-89-59.7c-27.9-19.8-56.5-35.9-84.1-50.8c-34.5-18.7-67.9-36.7-100.6-53.1c-31.3-15.7-62.1-34.3-96.2-46.3
		C872,205.1,787,183.4,700.5,189.5c-11.5,0.8-23,1.8-34,2.2c-23.8,0.9-47.6,0-69.6-11.9c-36.4-19.7-64.4-57.3-73.9-100.2
		c-8.6-38.9-3.5-80.8,12.6-126.2c22.4-63,64.7-118.2,105.8-163.8c37.6-41.7,77.6-81.9,120.7-113.7c9.5-7,19.2-13.7,28.6-20.3
		c16.9-11.9,34.1-24.3,49.7-38.8c27.2-25.2,44.6-55,48.7-85.5c2.8-20.8-0.6-42-3.8-62.7c-1.5-9.5-3-19.3-3.9-29
		C877.4-603.2,886.1-647.6,907.2-689.1z"/>
	<path class="st5" d="M892.5-705.8c20.7-41.6,52.7-76.1,89.4-100.2c81.4-53.5,187.9-56.6,261.9-37.8
		c81.2,20.6,155.7,119.3,241.2,228.1c22.9,29,46.5,58.1,70.5,84.4c14.1,15.5,28.6,30.1,43.7,43.2c77,67,169.7,73.7,274.5,63.9
		c32.2-3,65.5-6.9,97.6-10.4c53.3-5.7,106.6-6.4,152.2,22.5c63.8,40.5,99.1,102.3,107.4,171.2c7.7,64.4-12.1,130.3-49.9,191.5
		c-56.6,91.3-112.6,175-190.1,234.3c-9.2,7.1-18.5,14.4-27.8,21.2c-30.4,22.3-62.6,45.2-88,81.4c-21.6,30.8-34.9,69-49.4,107.4
		c-6.5,17.4-13.3,35.4-21.8,52.5c-26.7,53.5-62.6,77.5-104.3,83.2c-13.7,3.5-28.2,4.6-43.3,5.7c-52.1,4-110-3.8-170-26.3
		c-57.5-21.6-117.2-52.6-175.4-91.8c-31.3-21.1-61.6-43.9-91.3-65.5c-29.2-21.4-59.7-37-89.5-50.5c-36.7-16.7-72.6-31.1-108.1-43.9
		c-33.3-12-66.5-27.2-102.6-35c-67.4-14.6-156.1-27.4-244.7-21.2c-12.1,0.8-24.2,1.6-35.8,1.7c-24.7,0.1-49.4-2.3-71.8-16.3
		c-37.8-23.8-65.5-64.1-74.3-108.8c-8.3-42.1-1.3-86.3,17.1-132.9c26.1-66.2,74.7-122.3,118.8-167.9
		c39.2-40.5,78.8-81.1,120.7-114.2c9.2-7.2,18.6-14.3,27.7-21.3c16.3-12.5,32.7-25.6,47.7-40.5c25.9-25.8,42.6-55.8,46.9-86.8
		c2.8-20.9-0.1-42.1-2.8-62.8c-1.3-9.5-2.5-19.3-3.2-29C862.7-619.8,871.6-664.1,892.5-705.8z"/>
	<path class="st6" d="M877.9-722.6c20.8-42.3,52.7-77,89.2-101.5c83.9-56.6,193.6-58.8,262.9-42c82.5,20,156.8,131.9,244.4,250.2
		c23.4,31.4,47.7,62.7,72.7,90.6c14.8,16.6,30.1,32,46.2,45.7c80.9,69,180.5,63.7,291.5,45.6c33.7-5.5,68.6-11.4,102.1-16.5
		c56.6-8.6,112.7-10.5,160.5,20.9c69.1,45.5,104.8,112.9,110.1,186.7c5,68.6-20.3,138-65,202.5c-64,92.2-116.8,177.5-188.9,241.2
		c-8.7,7.7-17.2,15.7-26,23.2c-28.3,24.3-58.6,49.3-83.3,87.1c-20.7,31.7-34.3,70.4-49.4,109.6c-6.8,17.6-13.8,35.8-22.7,53.2
		c-29.3,57.5-67.7,79-111.7,79.2c-14.2,1.8-29,0.9-44.7,0.1c-52.4-2.5-110.9-17-171.3-46c-57.8-27.7-117.9-64.1-176.4-107.2
		c-32.1-23.6-63.1-48.5-93.6-71.3c-30.6-22.9-62.8-38.1-94.9-50.2c-38.8-14.6-77.2-25.6-115.5-34.6c-35.4-8.3-71-20-108.9-23.8
		c-73.2-7.3-165.5-11.6-256.2-5.3c-12.7,0.9-25.4,1.5-37.5,1.2c-25.7-0.7-51.2-4.5-73.9-20.8c-39.1-27.9-66.6-71-74.7-117.5
		C455,32.4,463.8-14.1,484.5-62c30-69.3,84.6-126.4,131.8-172c40.8-39.4,80-80.3,120.7-114.7c8.9-7.5,18-14.9,26.8-22.2
		c15.7-13.1,31.4-26.8,45.7-42.2c24.6-26.3,40.7-56.7,45.1-88c2.9-20.9,0.4-42.2-1.8-63c-1-9.6-2.1-19.4-2.6-29.1
		C847.9-636.3,857.1-680.7,877.9-722.6z"/>
	<path class="st7" d="M863.3-739.3c20.8-42.9,52.7-77.9,89-102.9c86.4-59.7,199.5-61.1,263.9-46.2c83.8,19.3,158,144.5,247.7,272.3
		c24,33.9,49,67.3,74.9,96.8c15.5,17.7,31.7,34,48.6,48.1c84.8,71,191.3,53.8,308.4,27.3c35.2-8,71.7-16,106.6-22.7
		c59.9-11.6,118.9-14.7,168.8,19.2c74.3,50.5,110.5,123.5,112.9,202.2c2.3,72.8-28.3,145.8-80.1,213.5
		c-71.3,93.2-121.1,180-187.7,248.1c-8.1,8.3-16,17-24.2,25.2c-26.2,26.3-54.5,53.3-78.5,92.8c-19.8,32.6-33.7,71.9-49.4,111.9
		c-7,17.8-14.3,36.2-23.5,54c-31.9,61.5-72.8,80.5-119.1,75.1c-14.6,0.2-29.8-2.7-46.1-5.5c-52.6-8.8-111.9-30.3-172.7-65.7
		c-58-33.8-118.6-75.7-177.4-122.7c-32.8-26.2-64.6-53.1-95.9-77.1c-31.9-24.4-65.9-39.3-100.3-49.9c-40.8-12.6-81.8-20.1-123-25.4
		c-37.4-4.8-75.5-12.6-115.2-12.5c-79.1,0.2-175,4.2-267.7,10.7c-13.4,0.9-26.6,1.3-39.2,0.7c-26.7-1.4-52.9-6.8-76.1-25.2
		c-40.4-32.1-67.6-77.8-75.1-126.2C425.4,28.2,436-20.6,459-69.7c33.9-72.4,94.5-130.6,144.7-176C646-284,684.9-325.2,724.4-361
		c8.7-7.8,17.4-15.5,25.9-23.2c15.1-13.6,30-28,43.8-43.9c23.2-26.9,38.7-57.5,43.3-89.2c3-21,0.9-42.3-0.8-63.2
		c-0.8-9.6-1.6-19.5-1.9-29.2C833.2-652.9,842.7-697.3,863.3-739.3z"/>
	<path class="st8" d="M848.6-756.1c21-43.5,52.7-78.8,88.8-104.3c88.8-62.8,205.3-63.6,265-50.4c85.2,18.7,159.2,157.1,251,294.4
		c24.5,36.4,50.2,72,77.1,103c16.2,18.8,33.2,35.9,51.1,50.6c88.7,73,202.1,43.9,325.3,9c36.8-10.4,74.7-20.5,111.1-28.9
		c63.2-14.5,125-18.8,177.2,17.6c79.6,55.5,116.1,134.1,115.7,217.7c-0.5,77-36.3,153.6-95.3,224.5
		c-78.5,94.4-125.2,182.6-186.5,255c-7.5,8.9-14.7,18.3-22.3,27.2c-24.1,28.2-50.5,57.4-73.7,98.4c-19,33.5-33,73.3-49.4,114.2
		c-7.2,18-14.8,36.7-24.3,54.7c-34.5,65.4-77.9,82-126.5,71.1c-15.1-1.5-30.7-6.3-47.5-11.1c-52.9-15-112.9-43.5-174.1-85.4
		c-58.3-39.9-119.3-87.4-178.4-138.2c-33.6-28.8-66-57.8-98.2-82.9c-33.2-26-69-40.4-105.7-49.6c-42.9-10.7-86.3-14.8-130.5-16.2
		c-39.4-1.2-80-5.1-121.6-1.3c-85,7.9-184.4,20.1-279.2,26.6c-14,1-27.8,1.2-41,0.2c-27.7-2.2-54.6-9.1-78.2-29.6
		c-41.7-36.2-68.5-84.6-75.5-134.8c-7.1-51.5,5.4-102.6,30.6-153c37.8-75.5,104.3-134.8,157.7-180.1
		c43.8-37.2,82.3-78.7,120.6-115.8c8.4-8.1,16.8-16.1,24.9-24.1c14.4-14.2,28.6-29.2,41.8-45.7c21.9-27.4,36.8-58.4,41.5-90.4
		c3-21,1.5-42.4,0.2-63.4c-0.6-9.6-1.2-19.5-1.3-29.3C818.5-669.4,828.3-713.8,848.6-756.1z"/>
	<path class="st9" d="M834-772.8c21-44.2,52.7-79.7,88.6-105.7c91.3-66,211.2-66.1,266-54.6c86.5,18.1,160.3,169.7,254.2,316.5
		c25,38.8,51.4,76.6,79.2,109.3c17,19.9,34.7,37.9,53.5,53.1c92.6,75,212.9,34,342.3-9.3c38.3-12.8,77.8-25.1,115.6-35
		c66.5-17.5,131.1-23,185.5,15.9c84.8,60.5,121.9,144.7,118.4,233.2c-3.2,81.1-44.2,161.6-110.4,235.6
		c-85.6,95.6-129.4,185.3-185.3,261.9c-7,9.5-13.5,19.6-20.5,29.2c-22.1,30.1-46.5,61.4-69,104.1c-18.2,34.4-32.4,74.8-49.4,116.5
		c-7.4,18.2-15.3,37.1-25.1,55.4c-37.2,69.3-83,83.6-133.9,67c-15.6-3.2-31.5-9.8-48.8-16.6c-53.2-21-113.8-56.7-175.5-105.1
		c-58.5-45.9-119.9-99-179.4-153.6c-34.3-31.4-67.5-62.4-100.5-88.7c-34.5-27.5-72.1-41.7-111.1-49.2c-45-8.8-90.9-9.5-138-6.9
		c-41.4,2.3-84.4,2.4-127.9,9.9c-90.8,15.7-193.9,35.9-290.7,42.5c-14.6,1-29,1.1-42.7-0.3c-28.7-2.9-56.4-11.4-80.4-34.1
		c-43-40.4-69.5-91.5-75.8-143.5c-6.7-54.7,7.7-108.1,35.1-159.6c41.7-78.6,114.1-139,170.7-184.2c45.2-36.1,83.4-77.9,120.6-116.3
		c8.1-8.3,16.2-16.7,24-25c13.8-14.8,27.3-30.4,39.8-47.4c20.6-27.9,34.9-59.2,39.7-91.6c3.1-21,2-42.4,1.2-63.5
		c-0.4-9.7-0.8-19.6-0.6-29.4C803.8-685.9,813.8-730.4,834-772.8z"/>
	<path class="st10" d="M819.3-789.5c21.1-44.8,52.7-80.7,88.4-107.1c93.7-69.2,217.1-68.8,267-58.8
		c87.9,17.5,161.5,182.3,257.5,338.7c25.5,41.3,52.5,81.3,81.4,115.5c17.6,21,36.3,39.8,56,55.6c96.5,77,223.7,24.2,359.2-27.6
		c39.9-15.3,80.8-29.7,120.1-41.2c69.8-20.5,137.2-27.1,193.9,14.2c90,65.6,127.6,155.3,121.2,248.8C2358.1-166.3,2312-82,2238.5-5
		c-92.6,97-133.5,188.1-184.1,268.8c-6.4,10.2-12.2,20.8-18.7,31.2c-20,32-42.5,65.5-64.2,109.7c-17.3,35.2-31.7,76.2-49.5,118.8
		c-7.7,18.4-15.9,37.5-26,56.1c-39.8,73.3-88.1,85.1-141.4,63c-16.1-4.8-32.4-13.3-50.2-22.2c-53.6-26.9-114.8-69.9-176.9-124.8
		c-58.8-52-120.5-110.7-180.5-169.1c-35-34.1-68.9-67-102.8-94.5c-35.8-29.1-75.3-42.9-116.5-48.9c-47-6.9-95.5-4.2-145.4,2.3
		c-43.4,5.7-88.9,10-134.2,21.2C751.7,230.3,644.9,258.3,546,265c-15.3,1-30.2,0.9-44.4-0.8c-29.7-3.6-58.1-13.8-82.6-38.5
		c-44.2-44.6-70.4-98.3-76.2-152.1c-6.2-57.9,10-113.5,39.5-166.3c45.7-81.6,123.8-143.3,183.7-188.3
		c46.7-35.1,84.6-77.1,120.6-116.8c7.8-8.6,15.6-17.3,23.1-26c13.2-15.3,25.9-31.6,37.9-49.1c19.4-28.5,32.9-60,37.9-92.8
		c3.2-21.1,2.5-42.5,2.2-63.7c-0.2-9.7-0.3-19.6,0-29.5C789-702.5,799.3-747,819.3-789.5z"/>
	<path class="st11" d="M804.7-806.3c21.1-45.4,52.6-81.6,88.2-108.5c96.1-72.5,223-71.5,268.1-63.1
		c89.4,16.8,162.6,194.9,260.8,360.8c26,43.8,53.8,85.9,83.6,121.7c18.3,22.1,37.8,41.8,58.4,58c100.4,79,234.6,14.5,376.1-45.9
		c41.4-17.7,83.9-34.3,124.5-47.4c73.1-23.6,143.3-31.2,202.2,12.6c95.2,70.7,133.3,165.9,123.9,264.3
		C2382.1-164.2,2330.9-76,2250,3.9c-99.6,98.4-137.5,190.9-183,275.8c-5.8,10.8-11,22.1-16.9,33.2c-18,33.9-38.5,69.5-59.5,115.4
		c-16.5,36.1-31.1,77.7-49.5,121.1c-7.9,18.6-16.4,37.9-26.8,56.8c-42.5,77.2-93.2,86.6-148.8,59c-16.6-6.5-33.3-16.8-51.6-27.8
		c-54.2-32.8-115.8-83.2-178.2-144.5c-59.1-58.1-121.1-122.4-181.5-184.6c-35.7-36.7-70.4-71.7-105.1-100.3
		c-37.1-30.7-78.4-44.2-121.8-48.6c-49.1-5-100.1,1-152.9,11.6c-45.4,9.1-93.2,17.7-140.5,32.4c-102.2,31.9-212.8,67.6-313.8,74.4
		c-15.9,1.1-31.4,0.8-46.2-1.3c-30.7-4.4-59.8-16.1-84.7-43C344,184.4,318,128.2,312.8,72.5c-5.7-61,12.3-118.9,44-173
		c49.7-84.7,133.6-147.6,196.7-192.4c48.1-34.1,85.8-76.3,120.6-117.3c7.6-8.9,15-17.9,22.2-26.9c12.6-15.9,24.6-32.7,35.9-50.8
		c18.1-29,31-60.9,36.1-94c3.2-21.1,3-42.6,3.2-63.9c0.1-9.8,0.1-19.7,0.6-29.6C774.3-719,784.9-763.6,804.7-806.3z"/>
	<path class="st12" d="M790.1-823c21.2-46.1,52.6-82.6,88-109.8c98.5-75.7,229-74.4,269.1-67.3c90.8,16.2,163.8,207.5,264.1,382.9
		c26.6,46.2,55,90.5,85.8,127.9c19.1,23.2,39.3,43.8,60.9,60.5c104.2,81.2,245.5,4.7,393.1-64.2c43-20.1,86.9-38.9,129-53.6
		c76.3-26.6,149.4-35.3,210.5,10.9c100.3,75.8,139,176.5,126.7,279.8C2406-162.2,2349.8-70,2261.6,12.8
		c-106.5,99.9-141.4,193.7-181.8,282.7c-5.2,11.5-9.8,23.4-15,35.1c-16,35.7-34.5,73.5-54.7,121.1c-15.7,37-30.4,79.2-49.5,123.4
		c-8.1,18.8-16.9,38.3-27.6,57.5c-45.2,81.1-98.4,88.1-156.2,54.9c-17.1-8.1-34.2-20.2-53-33.4c-54.8-38.6-116.8-96.4-179.6-164.2
		c-59.4-64.1-121.6-134.1-182.5-200c-36.4-39.4-71.8-76.3-107.4-106.1c-38.5-32.2-81.5-45.5-127.2-48.3
		c-51.2-3.2-104.8,6.2-160.4,20.8c-47.5,12.5-97.6,25.3-146.9,43.7c-107.7,40.1-222.2,83.4-325.3,90.3c-16.5,1.1-32.6,0.7-47.9-1.8
		c-31.7-5.1-61.4-18.4-86.9-47.4c-46.6-53.1-72.3-112-77-169.5c-5.2-64.2,14.6-124.3,48.5-179.7c53.7-87.7,143.3-152,209.7-196.5
		c49.5-33.2,87.1-75.5,120.6-117.8c7.3-9.2,14.4-18.5,21.3-27.9c12-16.5,23.2-33.9,33.9-52.6c16.9-29.4,29-61.7,34.3-95.2
		c3.3-21.2,3.6-42.7,4.2-64.1c0.3-9.8,0.6-19.7,1.3-29.6C759.6-735.5,770.4-780.1,790.1-823z"/>
	<path class="st13" d="M775.4-839.7c21.1-46.7,52.5-83.6,87.8-111.2c100.8-79,235-77.4,270.1-71.5c92.3,15.6,165,220.1,267.3,405
		c27.1,48.7,56.2,95.2,88,134.1c19.8,24.3,40.8,45.7,63.3,63c108.1,83.2,256.4-5,410-82.5c44.6-22.5,90-43.5,133.5-59.7
		c79.6-29.7,155.5-39.4,218.9,9.2c105.5,80.9,144.8,187.1,129.5,295.3c-13.9,97.9-75.2,194.2-170.8,279.7
		c-113.5,101.5-145.3,196.5-180.6,289.6c-4.6,12.1-8.5,24.6-13.2,37.1c-14,37.6-30.5,77.5-49.9,126.7
		c-14.9,37.8-29.7,80.6-49.5,125.6c-8.3,19-17.4,38.7-28.5,58.3c-47.9,85-103.5,89.7-163.6,50.9c-17.6-9.8-35.2-23.7-54.3-39
		c-55.4-44.4-117.8-109.6-181-183.9c-59.7-70.2-122.2-145.9-183.5-215.5c-37-42-73.3-81-109.7-111.9c-39.8-33.8-84.6-46.8-132.6-48
		c-53.2-1.3-109.5,11.3-167.9,30c-49.6,15.9-101.9,33-153.2,54.9c-113.2,48.3-231.7,99.2-336.8,106.3c-17.2,1.1-33.8,0.6-49.6-2.3
		c-32.7-5.9-63.1-20.7-89.1-51.8c-47.8-57.3-73.2-118.8-77.4-178.1c-4.7-67.3,16.9-129.7,53-186.4
		c57.7-90.7,152.9-156.4,222.7-200.6c50.8-32.3,88.2-74.7,120.6-118.3c7-9.4,13.8-19.1,20.3-28.8c11.3-17,21.9-35.1,31.9-54.3
		c15.6-29.9,27.1-62.6,32.5-96.4c3.3-21.2,4.1-42.8,5.2-64.2c0.5-9.8,1-19.8,1.9-29.7C744.9-752.1,755.8-796.8,775.4-839.7z"/>
	<path class="st14" d="M760.8-856.5c21.2-47.4,52.5-84.6,87.6-112.6c103.1-82.3,241-80.5,271.2-75.7
		c93.8,15,166.1,232.7,270.6,427.1c27.6,51.2,57.4,99.8,90.2,140.3c20.5,25.4,42.3,47.7,65.8,65.4c112,85.2,267.3-14.7,426.9-100.8
		c46.1-24.9,93-48.1,138-65.9c82.8-32.7,161.5-43.5,227.2,7.6c110.6,86,150.5,197.7,132.2,310.9c-16.5,102.1-82.9,202.5-185.9,290.7
		c-120.4,103.1-149.1,199.3-179.4,296.5c-4,12.8-7.3,25.9-11.4,39.1c-12.1,39.5-26.6,81.6-45.2,132.4c-14.2,38.7-29,82.1-49.5,127.9
		c-8.5,19.2-18,39.1-29.3,59c-50.6,88.9-108.6,91.2-171.1,46.8c-18.1-11.5-36.2-27.1-55.7-44.6c-56.2-50.3-118.8-122.8-182.4-203.6
		c-60-76.2-122.7-157.6-184.5-231c-37.7-44.7-74.7-85.6-112-117.7c-41.1-35.4-87.7-48.1-138-47.7c-55.3,0.5-114.2,16.5-175.3,39.3
		c-51.7,19.3-106.1,40.7-159.5,66.1c-118.5,56.5-241.2,115.1-348.3,122.2c-17.8,1.2-35,0.4-51.4-2.8c-33.6-6.6-64.8-23.1-91.2-56.3
		c-49-61.6-74.1-125.7-77.7-186.8C218.6-1,242-65.6,280.2-123.6c61.8-93.7,162.6-160.8,235.7-204.7c52.2-31.4,89.4-73.9,120.6-118.9
		c6.8-9.7,13.3-19.6,19.4-29.8c10.7-17.6,20.6-36.2,30-56c14.4-30.4,25.1-63.4,30.7-97.6c3.4-21.2,4.6-42.9,6.2-64.4
		c0.7-9.9,1.5-19.8,2.6-29.8C730.1-768.6,741.4-813.3,760.8-856.5z"/>
	<path class="st15" d="M746.2-873.2c21.2-48,52.4-85.6,87.4-114c105.4-85.6,247-83.7,272.2-79.9c95.3,14.4,167.3,245.3,273.9,449.2
		c28.1,53.6,58.6,104.4,92.4,146.5c21.2,26.5,43.9,49.7,68.3,67.9c115.9,87.2,278.3-24.5,443.8-119.2
		c47.7-27.3,96.1-52.8,142.5-72.1c86-35.8,167.6-47.6,235.5,5.9c115.8,91.2,156.3,208.3,135,326.4c-19.2,106.3-90.5,210.8-201,301.7
		c-127.4,104.8-152.9,202.1-178.2,303.4c-3.4,13.4-6.1,27.2-9.5,41.1c-10.2,41.3-22.7,85.6-40.4,138
		c-13.4,39.6-28.4,83.6-49.5,130.2c-8.7,19.4-18.5,39.5-30.1,59.7c-53.3,92.7-113.7,92.7-178.5,42.8c-18.6-13.1-37.2-30.6-57.1-50.2
		c-56.9-56.1-120-135.9-183.8-223.3c-60.4-82.2-123.2-169.3-185.5-246.4c-38.3-47.4-76.1-90.3-114.3-123.6
		c-42.4-36.9-90.9-49.5-143.4-47.4c-57.4,2.3-118.9,21.6-182.8,48.5c-53.8,22.6-110.4,48.4-165.9,77.4
		c-123.9,64.8-250.6,130.9-359.8,138.2c-18.4,1.2-36.2,0.3-53.1-3.3c-34.6-7.3-66.5-25.4-93.4-60.7c-50.2-65.8-75-132.5-78.1-195.4
		c-3.7-73.7,21.6-140.5,62-199.7c65.8-96.7,172.3-165.3,248.7-208.8c53.6-30.5,90.6-73.1,120.6-119.4c6.5-10,12.7-20.2,18.5-30.7
		c10.1-18.2,19.3-37.4,28-57.7c13.2-30.9,23.2-64.3,28.9-98.8c3.5-21.3,5.1-42.9,7.2-64.6c0.9-9.9,1.9-19.9,3.2-29.9
		C715.4-785.1,726.9-829.9,746.2-873.2z"/>
	<path class="st16" d="M731.5-889.9c21.3-48.7,52.3-86.6,87.2-115.4c107.7-89,253.1-80.7,273.2-84.1
		c96.5-16.1,168.5,257.9,277.1,471.3c28.6,56.1,59.8,109,94.6,152.8c21.9,27.6,45.4,51.6,70.7,70.4
		c119.8,89.2,289.3-34.2,460.8-137.5c49.3-29.7,99.1-57.4,147-78.3c89.3-38.9,173.7-51.7,243.9,4.2
		c120.9,96.3,162.1,218.9,137.7,341.9c-21.9,110.5-98.2,219.2-216.1,312.7c-134.3,106.5-156.6,204.9-177,310.3
		c-2.7,14.1-4.9,28.4-7.7,43.1c-8.2,43.2-18.8,89.6-35.7,143.7c-12.6,40.4-27.7,85-49.5,132.5c-9,19.6-19.1,39.9-30.9,60.4
		c-56.1,96.6-118.8,94.2-185.9,38.7c-19-14.8-38.2-34-58.5-55.8c-57.7-62-121-149.1-185.1-242.9c-60.7-88.2-123.7-181.1-186.5-261.9
		c-38.9-50.1-77.6-94.9-116.6-129.4c-43.6-38.5-94-50.8-148.8-47c-59.5,4.1-123.6,26.8-190.3,57.8c-56,26-114.6,56.1-172.2,88.6
		c-129.2,73-260.1,146.7-371.3,154.1c-19,1.3-37.4,0.2-54.8-3.8c-35.6-8-68.1-27.7-95.5-65.1c-51.3-70-75.9-139.3-78.5-204.1
		c-3.1-76.8,24-145.9,66.5-206.4c69.9-99.6,181.9-169.9,261.7-212.9c54.9-29.6,91.8-72.3,120.5-119.9c6.2-10.2,12.1-20.8,17.6-31.6
		c9.5-18.7,18-38.6,26-59.5c12-31.4,21.2-65.1,27.1-100c3.5-21.3,5.7-43,8.2-64.7c1.2-9.9,2.4-20,3.9-30
		C700.7-801.7,712.4-846.5,731.5-889.9z"/>
	<path class="st17" d="M716.9-906.7c21.3-49.3,52.3-87.6,87-116.7c110-92.4,259.3-85.4,274.3-88.3
		c97.5-18.8,169.6,270.5,280.4,493.5c29.2,58.6,61,113.6,96.8,159c22.6,28.8,46.9,53.6,73.2,72.9c123.7,91.2,300.2-43.9,477.7-155.8
		c50.9-32.1,102.1-62,151.5-84.4c92.5-42,179.7-55.8,252.2,2.6c126,101.4,168,229.5,140.5,357.4C2526-151.8,2444.5-38.9,2319.2,57.2
		C2178,165.4,2159,264.8,2143.4,374.4c-2.1,14.7-3.7,29.7-5.9,45.1c-6.3,45.1-14.8,93.6-30.9,149.3c-11.9,41.3-27.1,86.5-49.6,134.8
		c-9.2,19.8-19.6,40.3-31.8,61.1c-58.8,100.5-123.9,95.8-193.3,34.7c-19.5-16.4-39.2-37.5-59.8-61.4
		c-58.6-67.9-122-162.4-186.5-262.6c-61-94.3-124.1-192.8-187.5-277.4c-39.5-52.7-78.9-99.7-118.9-135.2
		c-44.9-40.2-97.2-52.2-154.2-46.7c-61.6,5.9-128.4,32-197.8,67c-58.1,29.4-118.8,63.7-178.5,99.9
		c-134.4,81.3-269.5,162.6-382.8,170c-19.7,1.3-38.6,0.1-56.6-4.3c-36.6-8.7-69.8-30.1-97.7-69.6c-52.5-74.3-76.7-146.2-78.9-212.8
		c-2.6-80,26.3-151.2,70.9-213.1c74-102.6,191.5-174.4,274.6-217c56.3-28.8,92.9-71.5,120.5-120.4c6-10.5,11.5-21.4,16.7-32.6
		c8.9-19.3,16.7-39.7,24.1-61.2c10.9-31.8,19.3-66,25.3-101.2c3.6-21.4,6.2-43.1,9.2-64.9c1.4-10,2.8-20,4.5-30.1
		C686-818.2,697.9-863.1,716.9-906.7z"/>
	<path class="st18" d="M702.2-923.4c21.3-49.9,52.2-88.6,86.8-118.1c112.2-95.8,265.3-90.3,275.3-92.5
		c98.5-21.4,170.8,283.1,283.7,515.6c29.7,61,62.3,118.3,99,165.2c23.3,29.9,48.4,55.5,75.6,75.3c127.6,93.2,311.5-53.2,494.6-174.1
		c52.6-34.4,105.1-66.6,155.9-90.6c95.7-45.1,185.7-59.7,260.6,0.9c130.9,106.8,173.7,240.1,143.3,373
		c-27,118.9-113.5,236.2-246.3,334.8c-148.2,110-163.9,210.3-174.6,324.1c-1.4,15.3-2.5,31-4.1,47c-4.5,47-11,97.6-26.2,155
		c-11.2,42.1-26.4,87.9-49.6,137.1c-9.4,20-20.1,40.7-32.6,61.9c-61.6,104.3-129.1,97.3-200.7,30.6c-20-18.1-40.2-40.9-61.2-67
		c-59.5-73.8-122.9-175.6-187.9-282.3c-61.3-100.4-124.6-204.6-188.5-292.8c-40.2-55.4-80.4-104.3-121.2-141
		C1238-3,1183.8-14.8,1124.6-7.7C1060.8,0,991.4,29.4,919.3,68.5c-60.3,32.8-123,71.4-184.9,111.1c-139.6,89.5-279,178.4-394.4,186
		c-20.3,1.3-39.8-0.1-58.3-4.8c-37.6-9.5-71.5-32.4-99.9-74c-53.6-78.5-77.6-153-79.3-221.4c-2-83.1,28.7-156.6,75.4-219.8
		c78.1-105.5,201.2-179.1,287.6-221.1c57.6-28,94.1-70.7,120.5-120.9c5.7-10.8,10.9-22,15.7-33.5c8.4-19.8,15.5-40.9,22.1-62.9
		c9.7-32.3,17.4-66.8,23.5-102.4c3.7-21.4,6.7-43.2,10.2-65.1c1.6-10,3.3-20.1,5.2-30.2C671.2-834.8,683.5-879.7,702.2-923.4z"/>
	<path class="st19" d="M687.6-940.1c21.4-50.6,52.1-89.6,86.6-119.5c114.4-99.2,271.5-98.2,276.3-96.7
		c102.1-6.1,172,295.7,286.9,537.7c30.2,63.5,63.5,122.9,101.2,171.4c24.1,31,50,57.5,78.1,77.8c131.5,95.2,322.4-63.1,511.6-192.4
		c54.1-36.8,108.1-71.3,160.4-96.8c98.8-48.3,191.8-63.9,268.9-0.8c136.1,111.9,179.4,250.7,146,388.5
		C2573.9-147.7,2482.5-26.2,2342.2,75c-155.1,111.8-167.5,213-173.4,331.1c-0.8,16-1.4,32.3-2.2,49c-2.6,49-7.1,101.6-21.4,160.7
		c-10.4,43-25.8,89.4-49.6,139.3c-9.6,20.3-20.7,41.1-33.4,62.6c-64.5,108.1-134.2,98.8-208.2,26.6c-20.5-19.8-41.3-44.4-62.6-72.5
		c-60.4-79.8-123.9-188.8-189.3-302c-61.5-106.5-124.8-216.4-189.6-308.3c-40.7-58.2-81.9-108.9-123.5-146.8
		c-47.5-43.3-103.5-54.9-165-46.1c-65.9,9.4-137.9,42.3-212.7,85.5C848.9,90,784.3,133,720.2,176.3
		c-144.8,97.8-288.4,194.2-405.9,201.9c-20.9,1.4-41-0.2-60-5.2c-38.6-10.2-73.1-34.8-102-78.4C97.7,211.7,73.9,134.7,72.7,64.4
		C71.4-21.9,103.8-97.5,152.6-162c82.3-108.3,210.8-183.7,300.6-225.2c59-27.2,95.3-69.9,120.5-121.4c5.4-11.1,10.3-22.6,14.8-34.5
		c7.7-20.4,14.2-42,20.1-64.6c8.6-32.8,15.4-67.7,21.7-103.6c3.7-21.4,7.2-43.3,11.2-65.3c1.8-10,3.7-20.1,5.8-30.2
		C656.5-851.3,669-896.2,687.6-940.1z"/>
	<path class="st20" d="M1036.7-1178.6c0,0-269.6-3-363.7,221.8C578.8-732.1,633.4-483.5,440.7-399s-560.5,323.6-318,701.1
		S997.3-282.2,1294.1-9.6s567.9,1218.3,786.5,853.7c218.6-364.6-40.2-540.5,273.1-760.2C2667.1-135.9,2749-455.8,2481.5-677
		s-723.3,493.7-970.7,316S1184.8-1189.6,1036.7-1178.6z"/>
</g>
</svg>
