<?xml version="1.0" encoding="utf-8"?>
<!-- Generator: Adobe Illustrator 28.0.0, SVG Export Plug-In . SVG Version: 6.00 Build 0)  -->
<svg version="1.1" id="Camada_2_00000127731120332562272190000001326830415849203382_"
	 xmlns="http://www.w3.org/2000/svg" xmlns:xlink="http://www.w3.org/1999/xlink" x="0px" y="0px" viewBox="0 0 53.1 53"
	 style="enable-background:new 0 0 53.1 53;" xml:space="preserve">
<style type="text/css">
	.st0{fill:#38BEEF;}
</style>
<g id="Camada_1-2">
	<g>
		<path class="st0" d="M52.3,0c0.6,0.3,0.7,0.8,0.7,1.5c0,1.8,0,3.6,0,5.4c0,0.9-0.4,1.3-1.3,1.3c-1.9,0-3.7,0-5.6,0
			c-1,0-1.3-0.4-1.3-1.3c0-0.6,0-1.1,0-1.7h-8.4c8.3,4.3,12.8,11,13.6,20.3c0.6,0,1.2,0,1.8,0c0.9,0,1.3,0.4,1.3,1.3
			c0,1.9,0,3.8,0,5.7c0,0.9-0.4,1.3-1.3,1.3c-1.9,0-3.8,0-5.7,0c-0.9,0-1.3-0.4-1.3-1.3c0-1.9,0-3.8,0-5.6c0-0.9,0.4-1.3,1.3-1.3
			c0.5,0,1.1,0,1.7,0c-0.3-4.9-2-9.2-5.2-12.9c-3.2-3.7-7.2-6.1-12-7.1c0,0.5,0,1,0,1.5c0,0.8-0.4,1.2-1.2,1.2c-2,0-3.9,0-5.9,0
			c-0.8,0-1.2-0.4-1.2-1.2c0-0.5,0-0.9,0-1.5c-4.2,0.8-7.8,2.7-10.8,5.7c-3.9,3.9-6.1,8.6-6.4,14.2c0.6,0,1.2,0,1.8,0
			c0.9,0,1.2,0.4,1.3,1.2c0,1.9,0,3.9,0,5.8c0,0.8-0.4,1.2-1.2,1.2c-1.9,0-3.9,0-5.8,0c-0.6,0-1-0.3-1.2-0.8v-6.7
			c0.3-0.6,0.8-0.8,1.5-0.7c0.5,0,1.1,0,1.6,0c0.8-9.3,5.3-16,13.6-20.3H8.2c0,0.6,0,1.1,0,1.7c0,1-0.3,1.4-1.4,1.4
			c-1.8,0-3.7,0-5.5,0C0.7,8.2,0.3,8,0,7.4V0h7.5c0.6,0.3,0.8,0.8,0.8,1.4c0,0.6,0,1.1,0,1.7h14.2c0-0.6,0-1.1,0-1.6
			c0-0.6,0.2-1.1,0.8-1.4h6.6c0.6,0.3,0.8,0.8,0.8,1.4c0,0.6,0,1.1,0,1.6h14.2c0-0.6,0-1.1,0-1.7c0-0.6,0.2-1.1,0.8-1.4H52.3L52.3,0
			z M28.5,2.1h-4v4h4V2.1z M6.1,6.1v-4h-4v4H6.1z M46.9,2.1v4.1h4V2.1H46.9z M2.1,27.6v4h4v-4H2.1z M50.9,31.6v-4h-4v4H50.9z"/>
		<path class="st0" d="M32.3,37.5c0.3,0,0.6,0,0.8,0c1.5,0,2.6,0.9,3,2.2c0.4,1.3-0.1,2.7-1.3,3.5c-0.2,0.1-0.3,0.4-0.3,0.6
			c0,2.6,0,5.2,0,7.8c0,0.2,0,0.3,0,0.5c-0.1,0.5-0.5,0.9-1,0.9c-0.5,0-0.9-0.4-1-0.9c0-0.2,0-0.3,0-0.5c0-2.4,0-4.8,0-7.2v-0.6h-12
			v0.6c0,2.4,0,4.8,0,7.2c0,0.2,0,0.3,0,0.5c-0.1,0.5-0.5,0.9-1,0.9c-0.5,0-1-0.4-1-1c0-0.2,0-0.3,0-0.5c0-2.6,0-5.2,0-7.7
			c0-0.3-0.1-0.5-0.3-0.7c-1.1-0.7-1.6-2.1-1.3-3.3c0.4-1.3,1.4-2.2,2.8-2.3c0.4,0,0.8,0,1.2,0c-0.4-2-1.2-3.7-2.3-5.3
			c-0.6-0.8-1.3-1.5-1.9-2.2c-0.6-0.6-0.6-0.9-0.2-1.7c0.5-0.9,0.9-1.7,1.4-2.5c0.2-0.4,0.6-0.6,1.1-0.6c0.4,0,0.8,0.3,0.9,0.7
			c0,0.3,0,0.6-0.1,0.9c-0.3,0.6-0.6,1.1-0.9,1.7c-0.1,0.2-0.1,0.4,0,0.6c2.2,2.4,3.7,5.2,4.3,8.4H30c0.5-1.4,1-2.8,1.6-4.2
			c0.7-1.5,1.7-2.9,2.8-4.1c0.2-0.2,0.3-0.4,0.1-0.7c-2.2-4.1-4.5-8.1-6.7-12.2c0-0.1-0.1-0.1-0.2-0.2c0,0.2,0,0.3,0,0.5
			c0,2.2,0,4.4,0,6.6c0,0.3,0.1,0.5,0.4,0.6c1.5,0.7,2.4,2.3,2,4c-0.4,1.6-1.8,2.8-3.4,2.8c-1.6,0-3.1-1.2-3.4-2.8s0.5-3.3,2-3.9
			c0.3-0.1,0.4-0.3,0.4-0.6c0-2.2,0-4.4,0-6.6c0-0.1,0-0.3,0-0.4c0,0-0.1,0-0.1,0c-0.5,0.9-1,1.7-1.4,2.6c-0.3,0.5-0.5,1-0.8,1.4
			c-0.4,0.6-0.9,0.8-1.5,0.5c-0.5-0.3-0.7-0.9-0.4-1.5c1.4-2.6,2.8-5.1,4.2-7.7c0.5-0.9,1.4-0.8,1.9,0.1c1.4,2.6,2.9,5.2,4.3,7.8
			c1.6,2.9,3.2,5.7,4.7,8.6c0.7,1.2,0.7,1.3-0.3,2.3c-1.9,1.9-3.2,4.2-3.9,6.8C32.3,37.1,32.3,37.3,32.3,37.5L32.3,37.5z M26.6,39.6
			c-2.1,0-4.2,0-6.4,0c-0.2,0-0.4,0-0.6,0c-0.5,0.1-0.8,0.5-0.8,1s0.3,0.9,0.8,1c0.2,0,0.4,0.1,0.6,0.1c4.2,0,8.4,0,12.6,0
			c0.2,0,0.5,0,0.7-0.1c0.4-0.1,0.7-0.5,0.7-0.9s-0.2-0.8-0.7-1c-0.2-0.1-0.5-0.1-0.7-0.1C30.8,39.6,28.7,39.6,26.6,39.6z M28,26.9
			c0-0.8-0.7-1.5-1.5-1.5s-1.5,0.7-1.4,1.5c0,0.8,0.6,1.4,1.5,1.4C27.3,28.4,28,27.7,28,26.9z"/>
		<path class="st0" d="M20.4,22c0.5,0,1,0.5,1,1c0,0.5-0.5,1-1,1c-0.6,0-1-0.5-1-1C19.4,22.4,19.9,22,20.4,22z"/>
	</g>
</g>
</svg>
