<?xml version="1.0" encoding="UTF-8"?>
<svg id="Camada_2" data-name="Camada 2" xmlns="http://www.w3.org/2000/svg" viewBox="0 0 23.98 23.59">
  <defs>
    <style>
      .cls-1 {
        fill: #b2adad;
      }
    </style>
  </defs>
  <g id="Camada_3" data-name="Camada 3">
    <path class="cls-1" d="m23.98,12.27c0-.41-.01-.82-.05-1.24-.38-3.91-2.26-6.96-5.5-9.09-1.5-.99-3.16-1.59-4.86-1.83-.07,0-.15-.03-.22-.03-.14-.02-.28-.02-.42-.03-.25-.02-.5-.03-.75-.04-.11,0-.22,0-.33,0-.3,0-.6.02-.9.05-.07,0-.15,0-.22.02-.32.03-.63.09-.94.14-.25.05-.51.11-.76.17-.03,0-.06.02-.09.02-1.42.39-2.79,1.05-4.02,1.99C2.6,4.17,1.11,6.33.43,8.85c0,0,0,0,0,0-.27,1-.41,2.06-.43,3.17.02,5.56,3.82,10.22,8.96,11.56.03-.1.06-.2.06-.33,0-.39,0-.78,0-1.16,0-.33,0-.66,0-.94-.6.02-1.17.09-1.73.05-1.13-.1-1.97-.63-2.4-1.75-.27-.69-.67-1.28-1.32-1.67-.11-.07-.21-.16-.3-.25-.17-.19-.13-.34.11-.39.18-.04.37-.05.54-.02.72.13,1.23.58,1.61,1.19.26.42.55.81.98,1.06.81.47,1.64.37,2.46.03.05-.02.09-.11.11-.18.1-.31.18-.62.31-.92.09-.21.25-.39.38-.59-.08-.01-.14-.02-.21-.03-.57-.12-1.15-.2-1.7-.37-1.52-.47-2.6-1.45-3.13-3-.28-.81-.37-1.66-.39-2.51-.02-1.25.34-2.36,1.13-3.32.05-.06.07-.18.05-.25-.31-1.01-.22-2,.13-2.97.02-.07.13-.15.2-.15.28.02.56.03.83.1.78.2,1.48.61,2.14,1.06.12.08.22.11.36.07,1.88-.48,3.77-.48,5.65,0,.1.02.23,0,.32-.06.56-.29,1.1-.62,1.66-.89.41-.2.85-.3,1.31-.29.11,0,.19.03.23.15.34.98.43,1.97.12,2.97-.04.11-.02.19.05.28.48.55.82,1.18.98,1.9.31,1.43.17,2.83-.34,4.18-.36.95-.98,1.68-1.85,2.21-.6.37-1.26.6-1.94.74-.38.08-.77.14-1.17.21.11.15.23.29.32.44.35.55.45,1.17.45,1.81,0,1.1-.01,2.2-.01,3.3,0,.12.02.23.06.32,5.07-1.32,8.83-5.87,8.96-11.32Z"/>
  </g>
</svg>