<?xml version="1.0" encoding="utf-8"?>
<!-- Generator: Adobe Illustrator 28.0.0, SVG Export Plug-In . SVG Version: 6.00 Build 0)  -->
<svg version="1.1" id="Camada_2_00000057861558820303650310000004672163169577265087_"
	 xmlns="http://www.w3.org/2000/svg" xmlns:xlink="http://www.w3.org/1999/xlink" x="0px" y="0px" viewBox="0 0 51 46.5"
	 style="enable-background:new 0 0 51 46.5;" xml:space="preserve">
<style type="text/css">
	.st0{fill:#38BEEF;}
</style>
<g>
	<g>
		<path class="st0" d="M49.9,5.4c0,11.9,0,23.8,0,35.7c0,0-0.1,0-0.1,0.1c-0.3,1.8-1.9,3.2-4.1,3.2c-13.5,0-27.1,0-40.6,0
			c-0.4,0-0.8,0-1.2-0.1c-1.8-0.5-2.9-1.9-2.9-3.8c0-3.7,0-7.5,0-11.2c0-7.6,0-15.3,0-22.9c0-1,0.2-1.9,0.8-2.6
			c0.9-1.1,2-1.5,3.3-1.5c11,0,21.9,0,32.9,0c2.6,0,5.2,0,7.8,0c1,0,2,0.3,2.8,1C49.3,3.7,49.7,4.5,49.9,5.4z M46.7,13.5
			c-14.1,0-28.2,0-42.3,0c0,0.2,0,0.4,0,0.5c0,8.7,0,17.4,0,26.1c0,0.8,0.1,0.9,1,0.9c13.5,0,26.9,0,40.4,0c0.9,0,1-0.1,1-1
			c0-8.7,0-17.3,0-26C46.7,13.9,46.7,13.8,46.7,13.5z M4.3,10.2c14.1,0,28.2,0,42.3,0c0-1.5,0-2.9,0-4.3c0-0.2-0.3-0.4-0.5-0.5
			c-0.1-0.1-0.3,0-0.5,0c-13.4,0-26.9,0-40.3,0c-0.1,0-0.2,0-0.3,0C4.6,5.4,4.3,5.6,4.3,6C4.3,7.4,4.3,8.8,4.3,10.2z"/>
		<path class="st0" d="M21.3,37c-1.4,0-2.1-1.3-1.4-2.5c1.3-2.3,2.6-4.5,3.9-6.8c1.8-3,3.5-6.1,5.3-9.1c0.7-1.3,2.1-1.1,2.7-0.4
			c0.4,0.5,0.6,1,0.3,1.6c-0.1,0.2-0.2,0.4-0.3,0.6c-3,5.2-6,10.4-9,15.6C22.4,36.5,22,37,21.3,37z"/>
		<path class="st0" d="M11.8,27.2c1.7,1.7,3.3,3.3,4.9,4.9c0.1,0.1,0.3,0.3,0.4,0.5c0.5,0.6,0.5,1.5-0.1,2.1
			c-0.6,0.6-1.4,0.7-2.1,0.2c-0.2-0.1-0.3-0.3-0.4-0.4c-1.9-1.9-3.9-3.9-5.8-5.8c-0.9-0.9-0.9-1.8,0-2.7c2-2,3.9-3.9,5.9-5.9
			c0.6-0.6,1.2-0.8,1.9-0.5c1.2,0.5,1.4,1.8,0.5,2.7c-1.5,1.5-3.1,3.1-4.6,4.6C12.1,27,11.9,27,11.8,27.2z"/>
		<path class="st0" d="M39.2,27.3c-1.8-1.8-3.4-3.4-5.1-5.1c-0.7-0.7-0.8-1.5-0.3-2.2c0.6-0.8,1.7-1,2.4-0.3
			c2.1,2.1,4.2,4.2,6.3,6.3c0.6,0.6,0.6,1.6,0,2.2c-2.1,2.1-4.2,4.2-6.3,6.3c-0.7,0.7-1.6,0.6-2.3-0.1c-0.6-0.6-0.7-1.5,0-2.2
			c1.6-1.6,3.1-3.2,4.7-4.7C38.9,27.5,39.1,27.4,39.2,27.3z"/>
		<path class="st0" d="M11.9,9c-0.6,0-1.2-0.6-1.2-1.2c0-0.7,0.6-1.2,1.3-1.2c0.6,0,1.2,0.6,1.2,1.2C13.1,8.5,12.5,9,11.9,9z"/>
		<path class="st0" d="M7.9,9C7.3,9,6.7,8.5,6.7,7.8c0-0.7,0.6-1.2,1.3-1.2c0.6,0,1.2,0.6,1.2,1.2C9.1,8.5,8.6,9,7.9,9z"/>
		<path class="st0" d="M15.8,6.6c0.6,0,1.2,0.6,1.2,1.2C17,8.4,16.5,9,15.8,9c-0.7,0-1.3-0.6-1.3-1.2C14.6,7.2,15.1,6.6,15.8,6.6z"
			/>
	</g>
</g>
</svg>
