<?xml version="1.0" encoding="UTF-8"?>
<svg id="Camada_2" data-name="Camada 2" xmlns="http://www.w3.org/2000/svg" viewBox="0 0 64.56 64.58">
  <defs>
    <style>
      .cls-1 {
        fill: #fff;
      }
    </style>
  </defs>
  <g id="Camada_3" data-name="Camada 3">
    <g>
      <path class="cls-1" d="m0,48.07c0-10.51,0-21.01,0-31.52.04-.2.09-.41.11-.61.19-1.76.59-3.49,1.34-5.09C4.73,3.92,10.22.18,17.9.07c9.58-.13,19.16-.04,28.75-.03,3.71,0,7.15,1,10.18,3.16,5.13,3.66,7.7,8.69,7.72,14.99.02,9.41.02,18.82,0,28.24,0,1.21-.07,2.45-.33,3.63-1.61,7.31-6.06,11.98-13.27,13.99-.94.26-1.93.36-2.9.53h-31.52c-.66-.11-1.33-.17-1.98-.32-7.31-1.64-12-6.07-14.01-13.3-.26-.94-.36-1.93-.53-2.9Zm5.72-15.76c0,4.66,0,9.33,0,13.99,0,1.48.15,2.93.65,4.34,1.83,5.13,6.25,8.21,11.83,8.22,9.37.01,18.74.03,28.11-.03,1.43,0,2.92-.2,4.26-.65,5.16-1.74,8.24-6.21,8.25-11.79.01-9.39.03-18.78-.03-28.17,0-1.41-.2-2.87-.64-4.2-1.72-5.14-6.18-8.24-11.72-8.26-9.43-.02-18.87-.01-28.3,0-4.23,0-7.65,1.67-10.17,5.1-1.61,2.19-2.26,4.7-2.26,7.4,0,4.68,0,9.37,0,14.05Z"/>
      <path class="cls-1" d="m48.91,32.32c-.01,9.14-7.54,16.66-16.66,16.62-9.16-.03-16.66-7.56-16.61-16.67.05-9.15,7.5-16.58,16.63-16.59,9.13,0,16.65,7.51,16.64,16.64Zm-16.62-10.9c-5.99-.03-10.89,4.85-10.92,10.87-.03,5.99,4.85,10.89,10.88,10.92,5.99.03,10.89-4.85,10.92-10.87.03-5.99-4.85-10.89-10.88-10.92Z"/>
      <path class="cls-1" d="m49.61,10.84c2.31,0,4.24,1.93,4.2,4.21-.03,2.29-1.92,4.16-4.2,4.16-2.31,0-4.23-1.93-4.2-4.22.03-2.29,1.91-4.15,4.2-4.15Z"/>
    </g>
  </g>
</svg>