<?xml version="1.0" encoding="UTF-8"?>
<svg id="Camada_2" data-name="Camada 2" xmlns="http://www.w3.org/2000/svg" viewBox="0 0 72.69 72.71">
  <defs>
    <style>
      .cls-1 {
        fill: #fff;
      }
    </style>
  </defs>
  <g id="Camada_3" data-name="Camada 3">
    <g>
      <path class="cls-1" d="m54.23,72.71H5.68c-.06-.03-.12-.08-.19-.09C2.37,72.19,0,69.52,0,66.14,0,46.34,0,26.53.01,6.73.01,2.78,2.85.01,6.8.01,19.4,0,32.01.01,44.62,0c.86,0,1.55.27,2.15.88,4.09,4.2,8.2,8.4,12.31,12.58.58.59.85,1.26.85,2.1-.02,3.29,0,6.58,0,9.87,0,.23,0,.45,0,.89.66-.68,1.17-1.22,1.71-1.74,3.03-2.93,7.4-2.68,9.82.66.62.86.84,2.01,1.24,3.03v1.42c-.34,2.04-1.57,3.51-3,4.91-3.11,3.04-6.15,6.15-9.24,9.2-.41.4-.55.8-.55,1.36.02,6.93,0,13.85.01,20.78,0,2.27-.75,4.21-2.66,5.5-.89.6-2.01.86-3.02,1.28ZM42.87,4.27c-.29,0-.5,0-.7,0-11.8,0-23.61,0-35.41,0-1.59,0-2.5.91-2.5,2.52,0,19.76,0,39.51,0,59.27,0,1.53.85,2.39,2.36,2.39,15.57,0,31.13,0,46.7,0,1.47,0,2.33-.87,2.33-2.35,0-5.61,0-11.21,0-16.82,0-.17-.03-.34-.06-.59-2.85,2.85-5.62,5.63-8.42,8.39-.45.44-.98.83-1.54,1.11-3.64,1.85-7.3,3.68-10.97,5.48-.58.28-1.26.47-1.89.48-3.05.05-6.1.06-9.15,0-.55-.01-1.19-.34-1.61-.72-.65-.58-.74-1.42-.38-2.22.38-.86,1.09-1.28,2.03-1.28,2.46,0,4.92-.02,7.38.01.6,0,.91-.15,1.18-.71,1.54-3.16,3.11-6.32,4.72-9.45.34-.66.79-1.3,1.31-1.82,5.62-5.66,11.26-11.29,16.91-16.92.34-.34.5-.67.5-1.17-.02-3.93-.01-7.86-.01-11.78v-.76c-3.45,0-6.78,0-10.12,0-1.9,0-2.66-.76-2.66-2.67,0-3.43,0-6.86,0-10.4Zm3.38,47.44c4.59-4.59,9.22-9.23,13.83-13.84-.9-.9-1.86-1.87-2.75-2.76-4.62,4.63-9.27,9.28-13.83,13.84.9.9,1.86,1.86,2.75,2.75Zm17.04-16.88c1.52-1.5,3.09-2.97,4.58-4.52.83-.85.72-2.13-.12-2.93-.8-.76-2.05-.79-2.89,0-.81.75-1.57,1.57-2.37,2.34-.74.72-1.5,1.42-2.22,2.1,1.08,1.08,2.05,2.05,3.02,3.01Zm-10.78-21.79c.08-.09.16-.18.24-.26-1.81-1.79-3.63-3.57-5.44-5.36-.05.05-.09.1-.14.15v5.47h5.34Zm-9.63,41.79c-.46-1.23-1.24-2.04-2.48-2.46-.8,1.61-1.58,3.17-2.46,4.92,1.75-.88,3.31-1.65,4.93-2.46Z"/>
      <path class="cls-1" d="m27.72,23.17c.66.47,1.29.88,1.87,1.36,3.14,2.57,4.68,5.91,4.76,9.95.01.61,0,1.23,0,1.85-.02,1.43-.87,2.3-2.3,2.31-2.53.01-5.06,0-7.59,0-4.47,0-8.94,0-13.41,0-1.72,0-2.52-.8-2.54-2.51-.02-2.06.05-4.11.79-6.08,1.01-2.68,2.71-4.79,5.1-6.35.23-.15.47-.31.74-.5-1.76-1.97-2.63-4.22-2.31-6.85.27-2.18,1.25-3.99,2.93-5.42,3.36-2.87,8.19-2.82,11.48.13,1.77,1.59,2.74,3.59,2.83,5.98.09,2.36-.76,4.39-2.36,6.13Zm2.35,11.16c.08-4.73-4.06-8.64-8.94-8.46-5.24.19-8.46,4.64-8.3,8.46h17.24Zm-4.24-17.03c-.02-2.3-2.1-4.27-4.46-4.22-2.35.05-4.35,2.03-4.33,4.29.02,2.27,2.05,4.22,4.39,4.22,2.37,0,4.42-2,4.4-4.29Z"/>
      <path class="cls-1" d="m19.31,47.15c-2.84,0-5.68.01-8.52,0-1.66-.01-2.73-1.52-2.09-2.95.41-.92,1.17-1.31,2.17-1.3,2.84,0,5.68,0,8.52,0,2.84,0,5.68,0,8.52,0,.94,0,1.64.44,2.02,1.3.35.81.2,1.58-.38,2.24-.47.53-1.09.71-1.78.71-2.82,0-5.63,0-8.45,0Z"/>
      <path class="cls-1" d="m19.32,51.41c2.84,0,5.68-.01,8.52,0,1.66.01,2.72,1.54,2.08,2.96-.42.92-1.18,1.3-2.17,1.3-3.26,0-6.53,0-9.79,0-2.34,0-4.68,0-7.03,0-1.44,0-2.41-.88-2.4-2.14,0-1.26.97-2.11,2.42-2.12,2.79,0,5.58,0,8.37,0Z"/>
      <path class="cls-1" d="m44.95,25.85c-1.32,0-2.65,0-3.97,0-1.39,0-2.34-.87-2.35-2.11,0-1.24.95-2.14,2.32-2.14,2.7,0,5.39,0,8.09,0,1.39,0,2.34.87,2.35,2.11,0,1.25-.94,2.13-2.32,2.14-1.37.01-2.74,0-4.12,0Z"/>
      <path class="cls-1" d="m44.99,34.37c-1.35,0-2.7,0-4.05,0-1.38-.01-2.33-.9-2.33-2.14,0-1.24.96-2.11,2.35-2.11,2.7,0,5.39,0,8.09,0,1.38,0,2.33.89,2.32,2.14,0,1.24-.96,2.11-2.35,2.11-1.35,0-2.7,0-4.05,0Z"/>
    </g>
  </g>
</svg>