<?xml version="1.0" encoding="UTF-8"?>
<svg id="Camada_1" xmlns="http://www.w3.org/2000/svg" version="1.1" viewBox="0 0 410.21 124.39">
  <!-- Generator: Adobe Illustrator 29.5.0, SVG Export Plug-In . SVG Version: 2.1.0 Build 137)  -->
  <defs>
    <style>
      .st0 {
        fill: #00a078;
      }

      .st1 {
        fill: #fff;
      }
    </style>
  </defs>
  <path class="st0" d="M291.03.6l-5.72,25.08-40.36.52c-5.26,1.91-5.82,7-5.03,11.97.32,2.02,1.62,3.69,2.16,5.61-12.49-5.21-28.83-22.7-20.45-36.87,1.61-2.73,6.05-6.31,9.23-6.31,0,0,60.17,0,60.17,0Z"/>
  <polygon class="st1" points="309.83 122.64 324.71 53.56 352.14 123.67 365.64 124 384.3 124.39 410.21 .02 382.86 .02 365.01 78.33 335.08 .6 307.18 .05 283.16 114.84 309.83 122.64"/>
  <path class="st1" d="M127.7,123.49l9.94-42.89,14.09.29c5.28,17.44,15.85,35.39,33.63,41.16,3.16,1.02,6.48,1.45,9.8,1.45h51.56c7.21,0,14.32-2.19,20.04-6.57,9.92-7.61,14.81-20.42,9.58-33.98-6.03-15.59-44.03-31.4-44.03-31.4,4.8,9.43,21.19,29.15,15.65,39.85-2.31,4.47-7.77,6.21-12.47,6.53-8.98.62-23.34.67-32.29,0-13.92-1.04-17.45-9.03-23.29-20.17,17.09-4.14,33.97-21.03,35.62-38.94C217.53,17.17,206.53,1.43,184.25,0l-63.59.08-27.08,123.41h34.12ZM147.73,30.99h0l1.09-5.4,19.4.02c.99-.02,1.95-.02,2.89,0h.34c2.89.08,5.46.39,7.3,1.18,6.23,2.66,5.18,13.3,2.81,18.35-1.98,4.22-7.3,10.15-12.31,10.15h-26.77l5.25-24.31h0Z"/>
  <path class="st1" d="M69.94.02l-18.13,84.64c-1.36,7.26-3.55,12.3-11.59,13.16-2.09.22-8.3.12-14.75.02h-12.85L0,123.81h53.53c13.5,0,29.55-16.03,31.1-29.36L103.91.02h-33.97Z"/>
</svg>