<?xml version="1.0" encoding="UTF-8"?>
<svg id="Camada_1" data-name="Camada 1" xmlns="http://www.w3.org/2000/svg" viewBox="0 0 458.33 130.54">
  <defs>
    <style>
      .cls-1 {
        fill: #fff;
      }

      .cls-2 {
        fill: #09aaa1;
      }
    </style>
  </defs>
  <g>
    <path class="cls-1" d="M0,130.54l14.82-24.88c9.45-1.4,30.84,2.72,38.23-3.58,3.34-2.85,4.29-8.67,5.36-12.76,5.81-22.35,9.56-45.35,15.01-67.8L60.59,0h47.78c.48,0,1.2,1.43.91,2.09l-23.68,110.67c-1.25,7.94-13.33,17.78-20.95,17.78H0Z"/>
    <path class="cls-1" d="M310.1,90.58c-4.32-11.34-26.44-24.73-37.14-30.32-3.31-1.73-9.46-5.1-12.86-5.89-.96-.22-1.03-.03-.89.89,7.91,10.99,25.7,28.03,20.91,42.79-1.23,3.79-3.48,5.96-6.73,6.94h-57.18c-1.18-.56-2.24-1.44-3.12-2.36-4.93-5.19-8.8-16.03-13.22-22.06,7.25-.48,15.08-3.81,20.62-8.43,18.21-15.16,27.34-68.08-4.69-72.15h-91.5c1.22,3.57,4.58,5.88,5.65,9.65.67,2.35.83,4.4.52,6.83l-24.91,114.06h34.98l10.37-46.88,15.13.14c3.75,7.46,7.65,14.96,11.86,22.18,7.47,12.81,11.51,23.16,28.28,24.56h82.32c.12,0,.24,0,.37-.01,19.1-1.71,27.53-23.41,21.23-39.95ZM190.82,59.34h-35.29l7.82-34.83h32.7c1.41,0,2.82.24,4.11.82,6.33,2.85,5.83,10.83,3.87,17.72-.51,1.89-1.22,3.81-1.98,5.66-1.67,4.05-6.42,10.63-11.23,10.63Z"/>
    <path class="cls-1" d="M457.79,0h-29.5c-.25,0-.47.18-.53.42l-16.12,74.23c-.11.5-.79.58-1.01.12L375.85.92c-.09-.19-.27-.3-.48-.31l-29.49-.57c-.26,0-.48.17-.54.42l-27.73,128.62c-.07.34.18.65.53.65h31.37c.26,0,.48-.18.53-.43l14.42-70.29c.1-.5.79-.59,1.01-.13l34.34,70.55c.09.19.28.3.48.3h49.11c.43,0,.69-.48.45-.83l-14.37-21.81c-.08-.12-.11-.27-.08-.41L458.32.65c.07-.34-.18-.65-.53-.65Z"/>
  </g>
  <path class="cls-2" d="M282.62,24.34c6.02-.43,10.01-.32,15.87-.32h27.1l5.04-23.39h-76.1c-2.85,0-5.04,12.78-5.23,15.38-1.31,18.38,15.46,28.72,29.89,35.83-.41-2.29-1.99-4.1-2.68-6.37-1.88-6.2-2.67-20.5,6.1-21.13Z"/>
</svg>
