<?xml version="1.0" encoding="utf-8"?>
<!-- Generator: Adobe Illustrator 27.2.0, SVG Export Plug-In . SVG Version: 6.00 Build 0)  -->
<svg version="1.1" id="Camada_1" xmlns="http://www.w3.org/2000/svg" xmlns:xlink="http://www.w3.org/1999/xlink" x="0px" y="0px"
	 viewBox="0 0 133.4 43.2" style="enable-background:new 0 0 133.4 43.2;" xml:space="preserve">
<style type="text/css">
	.st0{fill:#38BEEF;}
	.st1{fill:#FFFFFF;}
</style>
<g>
	<g>
		<path class="st0" d="M128.5,0c-2.7,0-4.9,2.1-4.9,4.7s2.2,4.8,4.9,4.9s4.9-2,4.9-4.7c0-1.6,0-3.3,0-4.9C131.8,0,130.1,0,128.5,0z"
			/>
		<path class="st1" d="M0,35.2c2.6-2.9,5.2-5.7,7.8-8.5c1.6,2,3.4,2.8,5.5,2.6c2.3-0.3,3.8-1.8,4.4-4.2c1-4.5,1.9-9,2.9-13.4
			c-4.1,0.2-8.2,0.4-12.3,0.6c0.6-3,1.3-6,1.9-8.9c8.1-0.1,16.3-0.2,24.4-0.3c-1.5,6.6-3.1,13.4-4.6,20.2c-2.1,9.4-7.6,13.5-16.8,15
			C7,39.4,2.7,38.5,0,35.2z"/>
	</g>
	<path class="st1" d="M35.5,32.9c0.3-1.9,0.7-4.1,0.7-5.4v-2.4h2.3c0.1,0,0.2,0,0.3-0.1c0.4-0.1,0.8-0.1,1.2-0.1c0.3,0,0.7,0,1,0.1
		c0.6-0.3,1.3-0.4,2-0.4c1.7,0,3.7,1,4.5,3.6c0.7-0.3,1.4-0.5,2.2-0.5c0.7,0,1.4,0.2,2.1,0.4v-0.4l1.7,0.1h0.8c0.7,0,1.3,0,2-0.2
		l1.5-0.3c-0.7-1-1.4-2.1-2.2-3.1c6.2-2.1,9.8-6.2,9.8-11.6c0-6.3-5.5-9.9-15.1-9.9c-4.2,0-8.5,0-12.7,0.1C37,5.5,36.3,8.3,35.7,11
		c4.2-0.1,8.5-0.2,12.7-0.3c2.8,0,4.6,0.8,4.6,3c0,2.6-2,4.1-5.4,4.2c-4.6,0.1-9.1,0.3-13.7,0.6c-0.4,1.6-0.7,3.2-1.1,4.9
		c-1.1,4.8-3.1,8.6-6.1,11.4c0,0.2-0.1,0.4-0.1,0.6c2.8-0.3,5.6-0.6,8.5-0.9C35.3,34.2,35.4,33.6,35.5,32.9z"/>
	<g>
		<path class="st1" d="M43.1,27.1c-1,0-1.7,0.5-2.2,0.9c-0.1-0.4-0.3-0.6-0.8-0.6c-0.4,0-1.2,0.2-1.5,0.2c0,2.8-1.4,8-1.4,10.1
			c0,1.8,1.1,2.3,2.3,2.3c3.7,0,6.1-4.2,6.1-8.7C45.6,28,44.2,27.1,43.1,27.1z M39.7,37.6c0.3-2.4,1-5.5,1.2-7.7
			c0.2-0.2,0.7-0.4,1.1-0.4c0.5,0,0.9,0.3,0.9,2C43,34.2,41.8,37.6,39.7,37.6z"/>
		<path class="st1" d="M54.1,30.5c-0.1,1.6-0.6,3.7-1,5.2l0,0c-0.5,1.6-1.4,2.2-2.8,2.2c-0.9,0-1.7-0.5-1.9-1.2
			c2.3-0.2,3.8-1.8,3.8-3.9c0-1.8-1.2-2.5-2.4-2.5c-2.3,0-4,2.3-4,5.5c0,2.9,1.8,4.1,4,4.1c2.6,0,4.1-1.4,4.7-3.2l0,0
			c0.5-1.5,0.8-2.9,0.9-3.9c0.7,0.8,1.4,2.3,1.4,3.4c0,1-0.4,1.7-1.7,1.7c-0.2,0.5-0.5,1.6-0.3,1.8c0.2,0.1,0.6,0.2,1.1,0.2
			c2,0,3.3-1.6,3.3-3.6c0-2.1-1.7-4-2.4-6C55.9,30.5,55.1,30.6,54.1,30.5z M49.6,32.3c0.3,0,0.5,0.3,0.5,0.8c0,0.9-0.8,1.9-1.9,2
			C48.4,33.7,48.9,32.3,49.6,32.3z"/>
		<path class="st0" d="M61.7,29.6c1,0,1.7-0.8,1.7-1.8c0-0.6-0.3-1.1-1.1-1.1c-1,0-1.6,0.9-1.6,1.8C60.7,29,61,29.6,61.7,29.6z"/>
		<path class="st1" d="M70.7,30.5c-0.4,0-1,0.2-1.4,0.2c0,0.3,0,0.6-0.1,0.9c-0.3-0.9-0.8-1.3-1.7-1.3c-2.1,0-3.4,2.7-3.6,5.4l0,0
			c-0.4,1.2-0.9,2.2-1.6,2.2c-0.4,0-0.5-0.4-0.5-0.8c0-1.3,0.9-3.7,0.9-5.2c0-0.9-0.3-1.4-0.9-1.4c-0.3,0-1,0.2-1.4,0.2
			c0.1,2.8-0.8,4.7-0.8,6.7c0,1.9,1,2.5,2.2,2.5c1.1,0,1.9-0.5,2.5-1.3c0.5,0.9,1.2,1.2,2,1.2c0.9,0,1.6-0.5,2.1-1.5
			c-0.1,2.4-0.9,2.8-2.1,2.8c-0.6,0-1.4-0.3-2-0.7c-0.2,0.6-0.2,1-0.2,1.4c0,0.9,1.5,1.4,2.7,1.4c2.2,0,3.8-1.5,3.8-5.1
			c0-2.5,0.8-5.1,0.8-6.3C71.5,31.1,71.3,30.5,70.7,30.5z M67.3,37.5c-0.6,0-0.9-0.6-0.9-1.7c0-1.8,0.8-3.2,1.6-3.2
			c0.6,0,0.8,0.6,0.8,1.5C68.8,35.8,68.3,37.5,67.3,37.5z"/>
		<path class="st1" d="M95,35.7c-0.4,1.2-0.9,2.2-1.6,2.2c-0.4,0-0.6-0.4-0.6-1.1c0-1,0.4-2.9,0.8-4.5c0.2-0.2,0.5-0.7,0.5-1.1
			s-0.1-0.8-0.4-1c-1.2,0.4-4.3,0.5-5.7,0.5c0.1,1.3-0.1,3.3-0.5,4.9l0,0c-0.5,1.6-1.4,2.2-2.8,2.2c-0.9,0-1.7-0.5-1.9-1.2
			c2.3-0.2,3.8-1.8,3.8-3.9c0-1.8-1.2-2.5-2.4-2.5c-2.2,0-3.9,2.2-4,5.4l0,0c-0.4,1.2-0.9,2.2-1.6,2.2c-0.3,0-0.5-0.4-0.5-0.8
			c0-1.1,0.6-3.2,0.6-4.5c0-1.6-0.9-2.2-1.8-2.2c-1,0-1.9,0.8-2.1,1c-0.1-0.5-0.4-0.8-0.8-0.8c-0.4,0-0.9,0.2-1.4,0.2
			c0.1,2.8-1,5.7-1,7.7c0,1,0.3,1.4,0.9,1.4c0.4,0,0.9-0.1,1.4-0.2c0-1.1,0.2-3.5,0.7-6.2c0.1-0.2,0.6-0.8,1.1-0.8
			c0.3,0,0.6,0.2,0.6,0.8c0,0.7-0.6,2.4-0.6,3.9c0,1.7,0.8,2.6,2.3,2.6c1.2,0,2.1-0.7,2.7-1.6c0.7,1.1,2,1.6,3.3,1.6
			c2.6,0,4.1-1.4,4.7-3.2l0,0c0.6-1.5,0.8-3.2,0.8-3.9c0.4,0,1.1,0,1.5-0.2c-0.5,1.9-0.7,3.5-0.7,4.5c0,2,1.1,2.8,2.4,2.8
			c1.9,0,2.9-1.4,3.5-3.2C96.9,35.3,95.3,34.6,95,35.7z M84.1,32.3c0.3,0,0.5,0.3,0.5,0.8c0,0.9-0.8,1.9-1.9,2
			C82.9,33.7,83.4,32.3,84.1,32.3z"/>
	</g>
	<path class="st1" d="M74.8,26.3c-3.9-0.1-7.8-0.9-11.7-2.6c-0.3,0.2-0.5,0.4-0.8,0.6h0.1c2,0,3.4,1.4,3.4,3.4c0,0.2,0,0.4,0,0.6
		c0.6-0.3,1.3-0.4,1.9-0.4c0.7,0,1.3,0.1,1.8,0.4c0.3-0.1,0.8-0.2,1.2-0.2h0.6c0.2,0,0.4,0.1,0.5,0.1h1c0.1,0,0.3,0,0.4-0.1
		c0.3-0.1,0.6-0.1,1-0.1s0.7,0.1,1,0.2c0.6-0.3,1.3-0.4,1.9-0.4c1.3,0,2.5,0.6,3.2,1.6c1.1-1,2.4-1.6,3.9-1.6c0.8,0,1.6,0.2,2.2,0.5
		H88c0.7,0,1.5,0,2.4-0.1c1-1.4,1.5-3.1,1.5-5c0-9.7-17.4-7.9-17.4-11.2c0-1,1.8-2,5.4-2c3.5,0,7.1,0.8,10,2.5
		c1.5-2.5,2.9-5,4.4-7.6c-3.4-1.8-8.2-2.7-13.6-2.7c-6.4,0-11.3,1.4-14.5,3.8c1.5,1.9,2.4,4.2,2.4,6.8c0,2.5-0.7,4.8-2,6.9
		c5.1,2.5,13,2.6,13,4.8C79.6,25.7,78,26.4,74.8,26.3z"/>
	<path class="st1" d="M120.6,4.7c0-0.4,0-0.8,0.1-1.2c-1,0-2,0-3,0c-1.1,5.2-2.2,10.4-3.3,15.5c-3.5-5.4-7-10.6-10.5-15.7
		c-2.5,0-5,0-7.5-0.1c0.6,0.3,1.2,0.7,1.9,1c-2.3,4.1-4.6,8.1-6.9,12c2.2,1.7,3.7,4,3.7,7.4c0,1.5-0.3,3-0.8,4.3l0.9,0.6
		c0.9,0.6,1.4,1.7,1.4,2.9c0,0.5-0.1,1.1-0.4,1.6c0.7,0.1,1.4,0.5,1.9,1c0.3,0.3,0.5,0.6,0.6,0.9l0,0c1.1-4.8,2.2-9.6,3.3-14.5
		c3.5,5.2,7,10.5,10.5,16.1c3.3,0.5,6.7,1,10,1.5c1.8-8.3,3.6-16.8,5.4-25.5C123.8,11.9,120.6,8.5,120.6,4.7z"/>
</g>
</svg>
