<?xml version="1.0" encoding="utf-8"?>
<!-- Generator: Adobe Illustrator 28.0.0, SVG Export Plug-In . SVG Version: 6.00 Build 0)  -->
<svg version="1.1" id="Camada_1" xmlns="http://www.w3.org/2000/svg" xmlns:xlink="http://www.w3.org/1999/xlink" x="0px" y="0px"
	 viewBox="0 0 362.8 204" style="enable-background:new 0 0 362.8 204;" xml:space="preserve">
<style type="text/css">
	.st0{fill:#FFFFFF;}
</style>
<g>
	<g>
		<g>
			<polygon class="st0" points="259.6,132.3 268.2,132.3 269.2,122.7 			"/>
		</g>
		<g>
			<polygon class="st0" points="250.5,64.6 248.1,89.6 270.3,111.8 273.1,83 285.6,83 280.6,132.4 305.2,132.3 312,64.6 			"/>
		</g>
	</g>
	<g>
		<g>
			<path class="st0" d="M221.1,163.1l-19.8-19.8l26.6-26.6l-26.6-26.6l19.8-19.8l46.4,46.4L221.1,163.1z M205.8,143.3l15.2,15.2
				l41.8-41.8L221,74.9l-15.2,15.2l26.6,26.6L205.8,143.3z"/>
		</g>
	</g>
	<g>
		<g>
			<path class="st0" d="M195.1,134.6l-46.4-46.4l46.4-46.4l19.8,19.8l-26.6,26.6l26.6,26.6L195.1,134.6z M153.3,88.3l41.8,41.8
				l15.2-15.2l-26.6-26.6l26.6-26.6l-15.2-15.2L153.3,88.3z"/>
		</g>
	</g>
	<g>
		<polygon class="st0" points="164.9,64.4 116.3,64.4 109.5,132.3 134,132.3 139,83 146.2,83 		"/>
	</g>
	<g>
		<polygon class="st0" points="83.2,64.6 78.6,109.7 53,109.7 50,132.3 76.4,132.3 100.9,132.4 107.8,64.6 		"/>
	</g>
</g>
</svg>
