<?xml version="1.0" encoding="utf-8"?>
<!-- Generator: Adobe Illustrator 28.0.0, SVG Export Plug-In . SVG Version: 6.00 Build 0)  -->
<svg version="1.1" id="Camada_1" xmlns="http://www.w3.org/2000/svg" xmlns:xlink="http://www.w3.org/1999/xlink" x="0px" y="0px"
	 viewBox="0 0 362.8 204" style="enable-background:new 0 0 362.8 204;" xml:space="preserve">
<style type="text/css">
	.st0{fill:url(#SVGID_1_);}
	.st1{fill:#FFFFFF;}
</style>
<g>
	<linearGradient id="SVGID_1_" gradientUnits="userSpaceOnUse" x1="173.2239" y1="89.2969" x2="173.2239" y2="49.9412">
		<stop  offset="0" style="stop-color:#0BBAC1"/>
		<stop  offset="1" style="stop-color:#3DB26B"/>
	</linearGradient>
	<polygon class="st0" points="150.3,49.9 196.2,49.9 173.2,89.3 	"/>
	<polygon class="st1" points="65.6,50.3 65.4,50 48.9,78.7 60.1,98 65.6,88.3 92.9,135.5 38.4,135.5 44.1,125.6 21.8,125.6 
		4.9,154.8 5.2,154.8 126.8,154.8 65.8,49.9 	"/>
	<path class="st1" d="M134.3,114.9l8.1-14.1h5.1l9.6,16.6l11.2-19.3l-10.7-18.6H151l2.8-6.6l-2.2-3.8h0l-11.1-19.3h-0.2h-66
		l60.8,105.4l11.2-19.3L134.3,114.9z M107.9,69.2h21.4l5.1,6.8l-11.3,19.5L107.9,69.2z"/>
	<polygon class="st1" points="194.2,107.9 205.4,88.4 211.9,99.6 234.2,99.6 205.4,49.8 205.4,49.7 160.9,126.9 227.8,127.2 
		232.6,135.5 156,135.5 144.5,155.3 266.4,155.3 239.1,108.2 	"/>
	<polygon class="st1" points="335.8,155.3 358.1,155.3 297.8,49.7 294.4,49.7 275.5,49.7 272.1,49.7 254.9,79.9 237.6,49.7 
		215.3,49.7 275.6,155.3 297.9,155.3 266,99.4 284.9,66.3 	"/>
</g>
<image style="overflow:visible;" width="368" height="175" xlink:href="F87947E7.jpg"  transform="matrix(1 0 0 1 -361.5 -181)">
</image>
</svg>
