<?xml version="1.0" encoding="utf-8"?>
<!-- Generator: Adobe Illustrator 28.0.0, SVG Export Plug-In . SVG Version: 6.00 Build 0)  -->
<svg version="1.1" id="Camada_1" xmlns="http://www.w3.org/2000/svg" xmlns:xlink="http://www.w3.org/1999/xlink" x="0px" y="0px"
	 viewBox="0 0 151.3 358.5" style="enable-background:new 0 0 151.3 358.5;" xml:space="preserve">
<style type="text/css">
	.st0{fill:#9AFF01;}
</style>
<g>
	<path class="st0" d="M42.3,236.3c0,5.6,0,10.8,0,16.1c0,2.6,0,5.1,0,7.7c0,0.5-0.2,1.1-0.5,1.5c-4.7,5.5-9.5,11-14.3,16.5
		c-0.1,0.2-0.3,0.3-0.6,0.6c-0.5-2.3-0.9-4.5-1.3-6.6c-1.8-9.2-3.7-18.4-5.5-27.6c-1.3-6.8-2.6-13.7-4-20.5c-0.6-3-1.2-5.9-1.8-8.9
		c-0.2-0.8,0-1.2,0.7-1.7c5.1-3.6,10.1-7.3,15.2-10.9c0.9-0.6,1.5-1.2,1.2-2.6c-1.3-6.5-2.7-13.1-3.5-19.7c-0.9-7-1.4-14-1.6-21
		c-0.1-7.5,0.1-15,0.7-22.4c0.8-9.5,2.3-19,4.7-28.3c2-7.7,4.3-15.4,6.5-23c0.7-2.5,1.7-4.9,2.6-7.3c0.1-0.3,0.6-0.7,0.9-0.7
		c6.1,0,12.2,0,18.2,0c5.4,0,10.7-0.1,16.1-0.1c5.4,0,10.8,0,16.2,0c5.4,0,10.8,0,16.2-0.1c0.6,0,1.3,0,2.1,0.1
		c1.3,3.6,2.6,7.2,3.7,10.8c1.6,5.3,3.1,10.7,4.6,16.1c1,3.7,1.9,7.5,2.6,11.3c1,5.4,2,10.8,2.5,16.3c0.7,7.7,1.1,15.4,1.3,23.1
		c0.1,5.8-0.3,11.6-0.8,17.4c-0.4,5.1-1.2,10.1-2,15.2c-0.7,4.3-1.7,8.5-2.5,12.8c-0.1,0.4,0.2,1,0.6,1.3c4,3,8,5.9,12,8.8
		c1.3,1,2.7,2,4,3c0.3,0.3,0.6,1,0.5,1.5c-1.7,8.7-3.5,17.4-5.3,26.1c-1.6,7.9-3.1,15.8-4.6,23.6c-0.8,4.2-1.7,8.4-2.5,12.6
		c-0.1,0.3-0.2,0.6-0.4,1.1c-1.5-1.7-2.9-3.3-4.3-4.9c-3.4-4-6.9-7.9-10.3-11.9c-0.4-0.5-0.6-1.2-0.6-1.8c0-7.3,0-14.5,0-21.8
		c0-0.6,0.2-1.2,0.3-1.7c-0.2,0-0.4,0-0.6-0.1c-0.9,2.2-1.8,4.5-2.8,6.7c-1.6,3.6-3.2,7.2-4.8,10.8c-0.2,0.4-0.8,0.9-1.3,0.9
		c-3.6,0.1-7.2,0-10.8,0c-5.4,0-10.8,0-16.2,0.1c-7,0-14.1,0-21.1,0c-1,0-1.5-0.3-1.8-1.2c-2.4-5.6-4.8-11.2-7.3-16.8
		C42.7,236.8,42.6,236.7,42.3,236.3z M98.1,155c12.5-12,12.7-32.6,0.1-45c-12.6-12.5-32.4-12.3-44.9,0
		c-12.5,12.3-12.5,32.7-0.1,45.1C65.8,167.5,86,167.3,98.1,155z M83.1,193.5c4.3-4.3,4.3-10.8,0.2-14.8c-4.2-4.2-10.4-4.5-14.9,0
		c-4.4,4.4-3.9,10.8-0.1,14.8C72.3,197.6,78.9,197.6,83.1,193.5z"/>
	<path class="st0" d="M108.8,72.6c-22-0.1-43.8-0.1-65.6-0.2c1-7.9,26.2-53.9,32.8-59.7C89.6,31.2,100.1,51.3,108.8,72.6z"/>
	<path class="st0" d="M55.5,262.9c1.6,22.7,7.9,43.8,20.1,63.2c12.2-19.4,18.5-40.5,20.2-63.3c0.5,1.6,1.1,3.3,1.4,4.9
		c0.7,4.5,1.6,9,1.9,13.5c0.2,4.3-0.1,8.6-0.5,12.8c-0.7,7.5-2.7,14.8-5.5,21.9c-3.7,9.4-8.5,18.2-14.9,26.1
		c-0.9,1.1-1.7,2.2-2.8,3.5c-1.6-2.1-3.1-4-4.6-6c-4.1-5.8-7.6-11.8-10.6-18.3c-3.1-6.8-5.5-13.9-6.9-21.3
		c-1.1-5.7-1.6-11.4-1.4-17.2c0.2-5.5,0.9-10.9,2.3-16.2C54.7,265.5,55.1,264.2,55.5,262.9z"/>
</g>
</svg>
