<?xml version="1.0" encoding="UTF-8"?>
<svg id="Camada_2" data-name="Camada 2" xmlns="http://www.w3.org/2000/svg" viewBox="0 0 204.96 204.64">
  <defs>
    <style>
      .cls-1 {
        fill: #fff;
      }
    </style>
  </defs>
  <g id="Camada_1-2" data-name="Camada 1">
    <g>
      <path class="cls-1" d="m0,204.64c5.34-15.77,9.98-30.42,15.32-44.8,2.16-5.82,1.91-10.48-.95-16.09C-17.13,81.94,24.81,6.71,94.06.45c61.8-5.59,112.77,42,110.86,103.5-1.5,48.25-41.22,90.19-89.42,94.76-19.79,1.88-38.5-1.37-56.45-9.82-2-.94-4.88-1.17-6.99-.53-14.92,4.5-29.74,9.31-44.59,14.01-2.03.64-4.07,1.24-7.46,2.27Zm25.64-24.93c10.01-3.18,18.71-5.84,27.33-8.73,3.29-1.1,5.95-.81,9.06.98,16.35,9.42,33.92,13.1,52.75,10.77,43.88-5.42,75.79-43.33,73.91-87.94-1.78-42.44-38.33-78.09-81.81-78.85-33.47-.58-59.58,13.87-76,43-16.22,28.8-14.82,58.03,2.76,86.18,1.7,2.72,2.03,4.92.96,7.9-3.01,8.4-5.71,16.91-8.97,26.68Z"/>
      <path class="cls-1" d="m54.93,75.93c.55-13.69,7.5-21.94,19.06-22.54,3.25-.17,5.47.65,6.75,3.88,2.45,6.15,5.6,12.08,7.4,18.4.69,2.43-.86,6.17-2.53,8.49-5.55,7.71-5.69,7.53-.17,15.18,6.86,9.5,15.64,16.53,26.21,21.64,5.2,2.51,8.88,1.42,12.13-2.86,1.19-1.57,2.44-3.12,3.39-4.83,1.76-3.16,4.13-3.6,7.21-2.11,5.8,2.81,11.58,5.65,17.45,8.29,3.18,1.43,3.89,3.74,3.61,6.93-1.07,12.32-14.7,21.63-28.11,18.89-24.23-4.96-43.82-17.36-57.92-37.69-5.14-7.41-9-15.72-13.08-23.81-1.15-2.28-.97-5.22-1.4-7.85Z"/>
    </g>
  </g>
</svg>