<?xml version="1.0" encoding="utf-8"?>
<!-- Generator: Adobe Illustrator 27.2.0, SVG Export Plug-In . SVG Version: 6.00 Build 0)  -->
<svg version="1.1" id="Camada_2_00000019669261719767851500000016425694010566395028_"
	 xmlns="http://www.w3.org/2000/svg" xmlns:xlink="http://www.w3.org/1999/xlink" x="0px" y="0px" viewBox="0 0 270 53"
	 style="enable-background:new 0 0 270 53;" xml:space="preserve">
<style type="text/css">
	.st0{fill:#25D366;}
	.st1{enable-background:new    ;}
	.st2{fill:#FFFFFF;}
	.st3{fill:#0A1316;}
</style>
<path class="st0" d="M238.6,1h-51.2H82.6H31.4C16.4,1,4.2,13.4,5.3,28.4c1,13.2,12,23.6,25.4,23.6h51.9h104.8h51.9
	c13.4,0,24.4-10.4,25.4-23.6C265.8,13.4,253.6,1,238.6,1z"/>
<g>
	<g>
		<g class="st1">
			<path class="st2" d="M74.6,30.3v2.2h-9.3v-12h9.2v2.2H68v2.6h5.6v2.1H68v2.8L74.6,30.3L74.6,30.3z"/>
		</g>
		<g class="st1">
			<path class="st2" d="M87.9,20.5v12.1h-2.3l-6-7.4v7.3h-2.8v-12h2.3l6,7.3v-7.3H87.9z"/>
		</g>
		<g class="st1">
			<path class="st2" d="M102.4,20.5l-5.2,12.1h-2.8l-5.3-12.1h3.1l3.7,8.6l3.7-8.6C99.7,20.5,102.4,20.5,102.4,20.5z"/>
		</g>
		<g class="st1">
			<path class="st2" d="M103.5,20.5h2.8v12.1h-2.8V20.5z"/>
			<path class="st2" d="M117.1,29.9h-5.6l-1.1,2.6h-2.9l5.4-12.1h2.8l5.4,12.1h-3L117.1,29.9z M116.2,27.9l-1.9-4.6l-1.9,4.6H116.2z
				"/>
			<path class="st2" d="M130.1,32.5l-2.3-3.3h-0.1h-2.4v3.3h-2.8v-12h5.2c3.2,0,5.3,1.7,5.3,4.3c0,1.8-0.9,3.1-2.5,3.8l2.7,3.9
				C133.1,32.5,130.1,32.5,130.1,32.5z M127.4,22.8h-2.3V27h2.3c1.7,0,2.6-0.8,2.6-2.1C130,23.5,129.2,22.8,127.4,22.8z"/>
			<path class="st2" d="M150.9,32.5v-7.2l-3.5,6h-1.3l-3.5-5.8v7.1H140V20.5h2.3l4.5,7.5l4.4-7.5h2.3v12.1L150.9,32.5L150.9,32.5z"
				/>
			<path class="st2" d="M165.7,30.3v2.2h-9.3v-12h9.2v2.2h-6.4v2.6h5.6v2.1h-5.6v2.8L165.7,30.3L165.7,30.3z"/>
			<path class="st2" d="M179,20.5v12.1h-2.3l-6-7.3v7.3h-2.8V20.5h2.3l6,7.3v-7.3H179z"/>
			<path class="st2" d="M180.9,31.4l0.9-2.1c1,0.7,2.5,1.3,4,1.3c1.7,0,2.3-0.6,2.3-1.3c0-2.2-7-0.7-7-5.2c0-2,1.7-3.8,5.1-3.8
				c1.5,0,3.1,0.4,4.2,1.1l-0.8,2.1c-1.1-0.6-2.3-0.9-3.3-0.9c-1.7,0-2.3,0.6-2.3,1.4c0,2.2,7,0.6,7,5.1c0,2-1.7,3.7-5.1,3.7
				C183.9,32.8,181.9,32.2,180.9,31.4z"/>
		</g>
		<g class="st1">
			<path class="st2" d="M201.4,29.9h-5.6l-1.1,2.6h-2.9l5.4-12.1h2.8l5.4,12.1h-3L201.4,29.9z M200.6,27.9l-1.9-4.6l-1.9,4.6H200.6z
				"/>
		</g>
		<g class="st1">
			<path class="st2" d="M214.8,26.3h2.6v4.9c-1.3,1-3.1,1.6-4.9,1.6c-3.8,0-6.6-2.6-6.6-6.3s2.8-6.3,6.7-6.3c2.1,0,3.9,0.7,5.1,2.1
				l-1.8,1.7c-0.9-0.9-1.9-1.4-3.1-1.4c-2.3,0-4,1.6-4,3.9c0,2.2,1.6,3.9,3.9,3.9c0.7,0,1.5-0.1,2.1-0.6V26.3z"/>
			<path class="st2" d="M229.3,30.3v2.2h-9.3v-12h9.2v2.2h-6.4v2.6h5.6v2.1h-5.6v2.8L229.3,30.3L229.3,30.3z"/>
			<path class="st2" d="M242.4,32.5v-7.2l-3.5,6h-1.3l-3.5-5.8v7.1h-2.6V20.5h2.3l4.5,7.5l4.4-7.5h2.3v12.1L242.4,32.5L242.4,32.5z"
				/>
		</g>
	</g>
	<g>
		<g>
			<path class="st2" d="M24.9,39.7c0.7-2,1.3-3.9,2-5.8c0.3-0.7,0.2-1.4-0.1-2.1c-4.1-8,1.3-17.7,10.3-18.5
				c8-0.7,14.6,5.4,14.3,13.4c-0.2,6.2-5.3,11.6-11.5,12.2c-2.6,0.2-5-0.2-7.3-1.3c-0.3-0.1-0.6-0.2-0.9-0.1
				c-1.9,0.6-3.8,1.2-5.8,1.8C25.6,39.5,25.4,39.6,24.9,39.7z M28.2,36.5c1.3-0.4,2.4-0.8,3.5-1.1c0.4-0.1,0.8-0.1,1.2,0.1
				c2.1,1.2,4.4,1.7,6.8,1.4c5.7-0.7,9.8-5.6,9.5-11.3c-0.2-5.5-4.9-10.1-10.6-10.2c-4.3-0.1-7.7,1.8-9.8,5.6
				c-2.1,3.7-1.9,7.5,0.4,11.1c0.2,0.4,0.3,0.6,0.1,1C29,34.1,28.6,35.2,28.2,36.5L28.2,36.5z"/>
			<path class="st2" d="M32,23.1c0.1-1.8,1-2.8,2.5-2.9c0.4,0,0.7,0.1,0.9,0.5c0.3,0.8,0.7,1.6,1,2.4c0.1,0.3-0.1,0.8-0.3,1.1
				c-0.7,1-0.7,1,0,2c0.9,1.2,2,2.1,3.4,2.8c0.7,0.3,1.1,0.2,1.6-0.4c0.2-0.2,0.3-0.4,0.4-0.6c0.2-0.4,0.5-0.5,0.9-0.3
				c0.7,0.4,1.5,0.7,2.3,1.1c0.4,0.2,0.5,0.5,0.5,0.9c-0.1,1.6-1.9,2.8-3.6,2.4c-3.1-0.6-5.7-2.2-7.5-4.9c-0.7-1-1.2-2-1.7-3.1
				C32,23.8,32,23.4,32,23.1L32,23.1z"/>
		</g>
	</g>
</g>
<rect x="82.8" y="91.4" class="st3" width="108" height="108"/>
</svg>
