<?xml version="1.0" encoding="UTF-8"?>
<svg id="Camada_2" data-name="Camada 2" xmlns="http://www.w3.org/2000/svg" viewBox="0 0 35.8 26.75">
  <defs>
    <style>
      .cls-1 {
        fill: #fff;
        stroke-width: 0px;
      }
    </style>
  </defs>
  <g id="Camada_3" data-name="Camada 3">
    <path class="cls-1" d="m33.46,21.6c.48,1.26.95,2.51,1.43,3.77.37.98.11,1.37-.92,1.37-1.07,0-2.13,0-3.2,0-.82,0-1.11-.44-.82-1.22.44-1.17.89-2.34,1.33-3.51.05-.14.1-.29.16-.44-.12-.08-.22-.15-.32-.22-1.4-1.02-1.29-3.07.22-3.91.27-.15.37-.3.37-.6-.02-1.64,0-3.28,0-5.01-.66.33-1.26.61-1.85.94-.1.05-.12.3-.12.45,0,1.47-.08,2.94.01,4.41.14,2.31-.98,3.85-2.83,4.99-2,1.24-4.23,1.8-6.54,2.05-2.73.29-5.44.15-8.09-.6-1.65-.47-3.21-1.14-4.51-2.28-1.12-.98-1.72-2.18-1.69-3.71.03-1.62,0-3.25.01-4.87,0-.29-.09-.44-.35-.57-1.69-.83-3.38-1.68-5.07-2.52C.33,9.93,0,9.75,0,9.3c0-.45.31-.63.66-.81C6.22,5.72,11.78,2.94,17.33.15c.4-.2.74-.2,1.14,0,5.56,2.79,11.12,5.57,16.68,8.35.35.17.66.36.65.81,0,.43-.3.61-.63.77-.55.27-1.1.56-1.66.83-.22.1-.32.22-.32.49.01,1.84,0,3.68.02,5.52,0,.15.11.36.23.43,1.74,1.03,1.81,3.02.14,4.14-.02.02-.04.04-.1.11Zm-3.89-10.39s0-.07,0-.11c-1.24-.11-2.49-.23-3.73-.34-2.6-.23-5.21-.46-7.81-.7-.6-.06-.89-.35-.86-.82.03-.46.41-.72.99-.66,4.5.41,9,.8,13.49,1.24.66.06,1.14-.19,1.68-.51-.12-.07-.19-.13-.27-.17-4.95-2.48-9.9-4.96-14.86-7.42-.17-.08-.46-.07-.63.01-3.96,1.96-7.91,3.94-11.87,5.92-1.07.54-2.15,1.08-3.27,1.64.13.08.21.13.29.17,4.96,2.48,9.93,4.97,14.9,7.44.16.08.42.06.59-.02,2.25-1.11,4.48-2.23,6.72-3.35,1.55-.77,3.09-1.55,4.64-2.32Zm-21.94,2.39c-.03.09-.05.13-.05.17,0,1.56-.05,3.13.02,4.69.02.51.24,1.07.53,1.49.78,1.14,1.98,1.75,3.24,2.22,3.52,1.31,7.13,1.42,10.78.68,1.73-.35,3.36-.95,4.76-2.07.88-.71,1.37-1.59,1.33-2.77-.05-1.33,0-2.66-.01-3.99,0-.13-.02-.26-.03-.43-.19.09-.33.15-.47.22-3.06,1.53-6.12,3.05-9.16,4.59-.46.23-.84.25-1.31.01-3.05-1.54-6.11-3.07-9.17-4.59-.15-.07-.3-.14-.46-.21Zm25.64,5.87c.01-.45-.36-.83-.81-.83-.43,0-.8.35-.82.77-.02.44.35.84.79.86.44.02.83-.36.84-.8Zm-.81,3.66c-.29.77-.53,1.41-.79,2.09h1.57c-.25-.67-.49-1.31-.78-2.09Z"/>
  </g>
</svg>