<?xml version="1.0" encoding="UTF-8"?>
<svg id="Camada_2" data-name="Camada 2" xmlns="http://www.w3.org/2000/svg" viewBox="0 0 62.25 62.25">
  <defs>
    <style>
      .cls-1 {
        fill: #fff;
      }
    </style>
  </defs>
  <g id="Camada_3" data-name="Camada 3">
    <path class="cls-1" d="m5.35,0c17.18,0,34.36,0,51.55,0,.09.04.17.09.27.11,1.48.3,2.69,1.05,3.66,2.2.75.89,1.11,1.94,1.42,3.03v51.55c-.04.07-.09.13-.1.21-.66,3.12-3.12,5.14-6.32,5.14-16.47,0-32.94,0-49.41,0-.56,0-1.14-.06-1.68-.19C1.87,61.32,0,58.84,0,55.77,0,39.34,0,22.91,0,6.48c0-.18,0-.37,0-.55.11-1.74.84-3.18,2.12-4.36.92-.84,2.05-1.26,3.22-1.58Zm28.89,52.87v-.79c0-5.02,0-10.05,0-15.07,0-.38.01-.77.05-1.15.25-2.7,3.25-4.71,5.83-3.91,2.17.67,3.44,2.43,3.44,4.8,0,5.13,0,10.25,0,15.38v.73h9.31c0-.17.02-.31.02-.45,0-5.73.01-11.47,0-17.2-.01-3.36-1.34-6.16-3.89-8.3-4.21-3.55-9.8-3.65-13.91.63-.27.28-.5.59-.88,1.03v-3.62h-9.26v27.92h9.29Zm-15.61,0v-27.92h-9.25v27.92h9.25Zm.96-38.87c0-3.09-2.52-5.62-5.59-5.61-3.08.01-5.63,2.57-5.59,5.63.03,3.08,2.5,5.54,5.58,5.56,3.1.02,5.6-2.48,5.61-5.58Z"/>
  </g>
</svg>