<?xml version="1.0" encoding="utf-8"?>
<!-- Generator: Adobe Illustrator 28.0.0, SVG Export Plug-In . SVG Version: 6.00 Build 0)  -->
<svg version="1.1" id="Camada_2_00000047753203192618758530000015026071390481202849_"
	 xmlns="http://www.w3.org/2000/svg" xmlns:xlink="http://www.w3.org/1999/xlink" x="0px" y="0px" viewBox="0 0 60 34.3"
	 style="enable-background:new 0 0 60 34.3;" xml:space="preserve">
<style type="text/css">
	.st0{fill:#38BEEF;}
</style>
<g id="Camada_1-2">
	<g>
		<path class="st0" d="M19.7,29.9c0.2-0.7,0.4-1.5,0.7-2.1c3.8-8.3,7.6-16.6,11.5-24.9c1.2-2.6,3.6-3.6,5.9-2.5c2.2,1.1,3,3.5,1.9,6
			c-3.8,8.4-7.7,16.7-11.6,25.1c-0.9,2-2.9,3.1-4.9,2.6C21.1,33.7,19.8,32,19.7,29.9z"/>
		<path class="st0" d="M49.9,17.1c-1.7-1.9-3.3-3.6-4.9-5.3c-1.9-2.1-1.9-4.7,0-6.4C46.8,3.7,49.4,4,51.2,6c2.4,2.6,4.8,5.2,7.3,7.9
			c2,2.2,2,4.4,0,6.6c-2.4,2.6-4.8,5.2-7.2,7.8c-1.9,2.1-4.5,2.3-6.4,0.6c-1.8-1.7-1.8-4.3,0.1-6.4C46.6,20.7,48.2,19,49.9,17.1
			L49.9,17.1z"/>
		<path class="st0" d="M10.1,17.1c1.7,1.9,3.3,3.6,4.9,5.3c1.9,2.1,1.9,4.8,0,6.4c-1.9,1.6-4.4,1.4-6.3-0.6
			c-2.4-2.6-4.8-5.2-7.2-7.9c-2-2.2-2-4.4,0-6.5c2.4-2.7,4.9-5.3,7.3-8c1.9-2,4.4-2.2,6.3-0.5c1.8,1.6,1.8,4.3,0.1,6.2
			C13.5,13.5,11.9,15.3,10.1,17.1L10.1,17.1z"/>
	</g>
</g>
</svg>
