<?xml version="1.0" encoding="utf-8"?>
<!-- Generator: Adobe Illustrator 27.2.0, SVG Export Plug-In . SVG Version: 6.00 Build 0)  -->
<svg version="1.1" id="Camada_2_00000062905860913220813600000017201777676412663730_"
	 xmlns="http://www.w3.org/2000/svg" xmlns:xlink="http://www.w3.org/1999/xlink" x="0px" y="0px" viewBox="0 0 64.6 64.6"
	 style="enable-background:new 0 0 64.6 64.6;" xml:space="preserve">
<style type="text/css">
	.st0{fill:#FFFFFF;}
</style>
<g>
	<path class="st0" d="M51.5,18.6c0.8,0.2,1.6,0.6,1.9,1.4c0.2,0.4,0.3,0.9,0.3,1.3c0,10.1,0,20.2,0,30.2c0,1.5-1,2.6-2.5,2.7
		c-0.6,0.1-1.3,0-1.9,0c0-0.6,0-1.2,0-1.8c0.5,0,1,0,1.4,0c1,0,1.2-0.3,1.2-1.2c0-5.4,0-10.8,0-16.2c0-4.4,0-9,0-13.4
		c0-0.2,0-0.4-0.1-0.6c-0.1-0.3-0.3-0.6-0.7-0.7c-0.2-0.1-0.4-0.1-0.6-0.1c-12.2,0-24.5,0-36.7,0c-0.2,0-0.3,0-0.5,0
		c-0.4,0.1-0.7,0.4-0.8,0.8c0,0.1,0,0.3,0,0.5c0,9.9,0,19.8,0,29.8c0,0.2,0,0.3,0.1,0.5c0.1,0.4,0.3,0.6,0.7,0.7c0.2,0,0.3,0,0.5,0
		c6.8,0,13.7,0,20.5,0c0.2,0,0.3,0,0.5,0c0,0.6,0,1.2,0,1.8c-0.2,0-0.3,0-0.5,0c-6.8,0-13.5,0-20.2,0c-2.1,0-2.7-0.4-3.4-2.3
		c0-10.5,0-20.9,0-31.3c0.2-0.2,0.3-0.4,0.4-0.7c0.4-0.8,1.1-1.3,2-1.5C25.8,18.6,38.6,18.6,51.5,18.6z"/>
	<path class="st0" d="M17.1,29.3c0,4.9,0,9.6,0,14.4c2.4,0.5,3.8,2,4.4,4.4c3.6,0,7.2,0,10.8,0c0,0.6,0,1.2,0,1.8
		c-0.1,0-0.3,0-0.5,0c-3.6,0-7.2,0-10.8,0c-1,0-1.2-0.2-1.3-1.2c-0.1-1.7-1.5-3.1-3.4-3.3c-0.8-0.1-1.1-0.3-1.1-1.2
		c0-5.1,0-10.3,0-15.4c0-1,0.2-1.2,1.2-1.4c1.5-0.1,2.8-1.2,3.1-2.7c0.1-0.3,0.1-0.5,0.1-0.8c0.1-0.5,0.3-0.8,1-0.9
		c0.1,0,0.3,0,0.4,0c7.5,0,15,0,22.4,0c0.1,0,0.3,0,0.4,0c0.5,0.1,0.8,0.3,0.9,0.9c0.1,0.9,0.3,1.7,0.9,2.4c0.6,0.7,1.4,1.1,2.3,1.2
		c0.1,0,0.2,0,0.3,0.1c0.8,0.1,1,0.4,1,1.2c0,2.5,0,4.9,0,7.5c0,0.1,0,0.2,0,0.3c-0.6,0-1.2,0-1.8,0c0-2.4,0-4.8,0-7.2
		c-0.4-0.1-0.8-0.3-1.2-0.4c-1.6-0.7-2.6-1.9-3.1-3.6c-0.1-0.3-0.2-0.4-0.5-0.4c-6.9,0-13.9,0-20.8,0c-0.3,0-0.4,0.1-0.5,0.4
		c-0.5,2.1-1.8,3.4-4,4C17.3,29.2,17.2,29.3,17.1,29.3C17.2,29.2,17.1,29.3,17.1,29.3z"/>
	<path class="st0" d="M42.1,58.3c-0.5,0.5-1.1,0.9-1.7,1.4c-0.7,0.5-1.4,1.1-2,1.6c-0.3,0.3-0.7,0.5-1.2,0.3
		c-0.5-0.2-0.5-0.6-0.5-1.1c0-2.8,0-5.6,0-8.4c0-0.3-0.1-0.5-0.3-0.8c-3-3.1-3.1-7.9-0.2-11.1c2.9-3.1,7.7-3.5,11-0.8
		c3.7,3,4,8.6,0.5,12c-0.2,0.2-0.3,0.4-0.3,0.7c0,2.8,0,5.7,0,8.5c0,0.2,0,0.5-0.1,0.7c-0.2,0.5-0.9,0.7-1.4,0.3
		c-1-0.8-1.8-1.5-2.8-2.3C42.8,58.8,42.5,58.5,42.1,58.3z M42.1,51.7c3.4,0.1,6.2-2.7,6.3-6.2c0.1-3.5-2.7-6.3-6.2-6.4
		c-3.4-0.1-6.2,2.7-6.3,6.2C35.8,48.8,38.6,51.6,42.1,51.7z M45.7,58.8c0-2.1,0-4.1,0-6.1c-1.2,0.5-2.3,0.8-3.6,0.8
		c-1.2,0-2.4-0.3-3.6-0.8c0,2.1,0,4,0,6.1c1-0.8,1.8-1.4,2.7-2.1c0.8-0.6,1-0.6,1.7,0C43.8,57.3,44.7,58.1,45.7,58.8z"/>
	<path class="st0" d="M32.3,27.6c2.9,0,5.7,0,8.6,0c1,0,1.2,0.3,1.2,1.2c0,1,0,2,0,3c0,0.8-0.3,1.1-1.1,1.1c-5.8,0-11.6,0-17.5,0
		c-0.8,0-1.1-0.3-1.1-1.1c0-1,0-2.1,0-3.1c0-0.8,0.3-1.1,1.1-1.1C26.5,27.6,29.4,27.6,32.3,27.6z M40.3,29.3c-5.4,0-10.7,0-16.1,0
		c0,0.6,0,1.2,0,1.7c5.4,0,10.7,0,16.1,0C40.3,30.5,40.3,30,40.3,29.3z"/>
	<path class="st0" d="M21.5,41c0-0.6,0-1.2,0-1.7c3.6,0,7.1,0,10.7,0c0,0.5,0,1.2,0,1.7C28.6,41,25.2,41,21.5,41z"/>
	<path class="st0" d="M15.3,23.1c0.5,0,1.2,0,1.8,0c0,0.5,0,1,0,1.6c0,0.1-0.1,0.1-0.2,0.2h-0.1c-0.5-0.1-1-0.1-1.5-0.1
		C15.3,24.2,15.3,23.7,15.3,23.1z"/>
	<path class="st0" d="M49.2,23c0,0.6,0,1.2,0,1.8c-0.5,0-1,0-1.6,0c-0.1,0-0.2-0.1-0.2-0.3c0-0.4,0-0.8,0-1.2c0-0.1,0.1-0.3,0.3-0.3
		C48.2,23,48.7,23,49.2,23z"/>
	<path class="st0" d="M17,49.9c-0.6,0-1.2,0-1.7,0c0-0.5,0-1.2,0-1.7c0.5,0,1.2,0,1.7,0C17,48.7,17,49.3,17,49.9z"/>
	<path class="st0" d="M21.5,37.3c0-0.6,0-1.2,0-1.7c0.5,0,1.2,0,1.8,0c0,0.5,0,1.2,0,1.7C22.7,37.3,22.1,37.3,21.5,37.3z"/>
	<path class="st0" d="M25.1,37.3c0-0.6,0-1.2,0-1.7c0.6,0,1.2,0,1.7,0c0,0.5,0,1.1,0,1.7C26.3,37.3,25.7,37.3,25.1,37.3z"/>
	<path class="st0" d="M42.1,49.9c-2.5,0-4.5-2.1-4.4-4.5c0-2.5,2.1-4.4,4.4-4.4c2.5,0,4.4,2,4.4,4.4C46.6,47.9,44.6,49.9,42.1,49.9z
		 M44.8,45.5c0-1.5-1.2-2.7-2.7-2.7c-1.4,0-2.7,1.2-2.7,2.7c0,1.4,1.2,2.7,2.7,2.7C43.6,48.1,44.8,46.9,44.8,45.5z"/>
</g>
</svg>
