<?xml version="1.0" encoding="UTF-8"?>
<svg id="Camada_2" data-name="Camada 2" xmlns="http://www.w3.org/2000/svg" viewBox="0 0 24 24">
  <defs>
    <style>
      .cls-1 {
        fill: #b2adad;
      }
    </style>
  </defs>
  <g id="Camada_3" data-name="Camada 3">
    <path class="cls-1" d="m12,0C5.38,0,0,5.38,0,12s5.38,12,12,12,12-5.38,12-12S18.62,0,12,0Zm3.61,12.87c0-.23-.03-.47-.09-.69-.13-.49-.48-.76-.97-.83-.25-.04-.51-.03-.76,0-.52.06-.91.46-.99.98-.03.2-.05.41-.05.61,0,1.78,0,3.56,0,5.34v.28h-2.93v-10.19h2.91v1.17c.4-.96,1.23-1.13,2.1-1.17.5-.02,1.02,0,1.51.11,1.08.24,1.69,1,1.94,2.03.15.63.26,1.28.27,1.92.04,1.98.02,3.97.02,5.95,0,.05,0,.1-.01.17h-2.93v-.29c0-1.79,0-3.59,0-5.38ZM6.9,7.66c-.82,0-1.46-.64-1.46-1.47,0-.84.63-1.48,1.47-1.48.84,0,1.48.64,1.48,1.48,0,.84-.64,1.47-1.48,1.47Zm1.46.7v10.19h-2.9v-10.19h2.9Z"/>
  </g>
</svg>