<svg xmlns="http://www.w3.org/2000/svg" viewBox="0 0 612.82 612.82">
  <defs>
    <style>
      .st0 { fill: #ffffff; }
      .st1 { fill: url(#Gradiente_sem_nome_96); }
    </style>
    <linearGradient id="Gradiente_sem_nome_96" data-name="Gradiente sem nome 96" x1="326.47" y1="47.6" x2="490.66" y2="47.6" gradientUnits="userSpaceOnUse">
      <stop offset="0" stop-color="#32a658"/>
      <stop offset=".12" stop-color="#3aab53"/>
      <stop offset=".32" stop-color="#51b845"/>
      <stop offset=".57" stop-color="#77cf2f"/>
      <stop offset=".86" stop-color="#abed10"/>
      <stop offset="1" stop-color="#c8ff00"/>
    </linearGradient>
  </defs>
  <rect width="612.82" height="612.82" fill="#000000" />
  <g transform="translate(0, 219.14)">
    <path class="st0" d="M77.24,152.55l14.82-24.88c9.45-1.4,30.84,2.72,38.23-3.58,3.34-2.85,4.29-8.67,5.36-12.76,5.81-22.35,9.56-45.35,15.01-67.8l-12.83-21.52h47.78c.48,0,1.2,1.43.91,2.09l-23.68,110.67c-1.25,7.94-13.33,17.78-20.95,17.78h-64.65Z"/>
    <path class="st0" d="M387.34,112.59c-4.32-11.34-26.44-24.73-37.14-30.32-3.31-1.73-9.46-5.1-12.86-5.89-.96-.22-1.03-.03-.89.89,7.91,10.99,25.7,28.03,20.91,42.79-1.23,3.79-3.48,5.96-6.73,6.94h-57.18c-1.18-.56-2.24-1.44-3.12-2.36-4.93-5.19-8.8-16.03-13.22-22.06,7.25-.48,15.08-3.81,20.62-8.43,18.21-15.16,27.34-68.08-4.69-72.15h-91.5c1.22,3.57,4.58,5.88,5.65,9.65.67,2.35.83,4.4.52,6.83l-24.91,114.06h34.98l10.37-46.88,15.13.14c3.75,7.46,7.65,14.96,11.86,22.18,7.47,12.81,11.51,23.16,28.28,24.56h82.32c.12,0,.24,0,.37,0,19.1-1.71,27.53-23.41,21.23-39.95h0ZM268.06,81.35h-35.29l7.82-34.83h32.7c1.41,0,2.82.24,4.11.82,6.33,2.85,5.83,10.83,3.87,17.72-.51,1.89-1.22,3.81-1.98,5.66-1.67,4.05-6.42,10.63-11.23,10.63Z"/>
    <path class="st0" d="M527.1,150.91c.24.35-.02.83-.45.83h-49.11c-.2,0-.39-.11-.48-.3l-34.34-70.55c-.22-.46-.91-.37-1.01.13l-14.42,70.29c-.05.25-.27.43-.53.43h-31.37c-.35,0-.6-.31-.53-.65l20.17-93.57h54.36l18.49,39.26c.22.46.9.38,1.01-.12l16.12-74.23c.06-.24.28-.42.53-.42h29.5c.35,0,.6.31.53.65l-22.92,106.03c-.03.14,0,.29.08.41l14.37,21.81Z"/>
    <path class="st1" d="M359.86,45.71c6.02-.43,10.01-.32,15.87-.32h109.88l5.04-23.39h-158.88c-2.85,0-5.04,12.78-5.23,15.38-1.31,18.38,15.46,28.72,29.89,35.83-.41-2.29-1.99-4.1-2.68-6.37-1.88-6.2-2.67-20.5,6.1-21.13h0Z"/>
  </g>
</svg>
